<svg width="261" height="64" viewBox="0 0 261 64" fill="none" xmlns="http://www.w3.org/2000/svg">
<path d="M40.4792 33.8657C40.5374 29.3369 42.9663 25.0517 46.8195 22.6796C44.3887 19.2034 40.3172 16.9993 36.0812 16.8666C31.5632 16.3917 27.1832 19.5737 24.8809 19.5737C22.534 19.5737 18.9893 16.9138 15.1722 16.9924C10.1967 17.1534 5.55835 19.9859 3.1377 24.3416C-2.06576 33.3626 1.81555 46.6204 6.80003 53.9123C9.29387 57.4829 12.2084 61.4714 16.0221 61.33C19.754 61.175 21.1478 58.9471 25.6526 58.9471C30.1155 58.9471 31.4231 61.33 35.3142 61.2401C39.3187 61.175 41.8417 57.6536 44.2481 54.0491C46.0399 51.5049 47.4187 48.693 48.3334 45.7176C43.6274 43.7245 40.4846 38.9822 40.4792 33.8657Z" fill="#E6E6E6"/>
<path d="M33.1296 12.0711C35.313 9.44648 36.3887 6.07297 36.1282 2.66699C32.7924 3.01782 29.7111 4.61424 27.4982 7.13816C25.3342 9.60416 24.2081 12.9183 24.421 16.1941C27.758 16.2285 31.0385 14.6754 33.1296 12.0711Z" fill="#E6E6E6"/>
<path d="M66.6667 1.57024V16.5536H72.2639C76.8835 16.5536 79.5586 13.802 79.5586 9.01521C79.5586 4.3011 76.862 1.57024 72.2639 1.57024H66.6667ZM69.0732 3.68847H71.9954C75.2076 3.68847 77.1091 5.66134 77.1091 9.04636C77.1091 12.4833 75.2398 14.4354 71.9954 14.4354H69.0732V3.68847Z" fill="#E6E6E6"/>
<path d="M87.7513 16.7717C91.1677 16.7717 93.2626 14.56 93.2626 10.8946C93.2626 7.25001 91.1569 5.02794 87.7513 5.02794C84.335 5.02794 82.2293 7.25001 82.2293 10.8946C82.2293 14.56 84.3242 16.7717 87.7513 16.7717ZM87.7513 14.7884C85.7423 14.7884 84.6143 13.3659 84.6143 10.8946C84.6143 8.44412 85.7423 7.01119 87.7513 7.01119C89.7496 7.01119 90.8883 8.44412 90.8883 10.8946C90.8883 13.3555 89.7496 14.7884 87.7513 14.7884Z" fill="#E6E6E6"/>
<path d="M111.103 5.246H108.793L106.709 13.8747H106.526L104.12 5.246H101.907L99.5001 13.8747H99.3282L97.2332 5.246H94.8912L98.1142 16.5536H100.488L102.895 8.22606H103.078L105.495 16.5536H107.89L111.103 5.246Z" fill="#E6E6E6"/>
<path d="M113.763 16.5536H116.072V9.93934C116.072 8.17414 117.158 7.07349 118.866 7.07349C120.574 7.07349 121.39 7.97686 121.39 9.79397V16.5536H123.7V9.23326C123.7 6.54393 122.261 5.02794 119.65 5.02794C117.888 5.02794 116.728 5.78594 116.158 7.04234H115.987V5.246H113.763V16.5536Z" fill="#E6E6E6"/>
<path d="M127.338 16.5536H129.648V0.833008H127.338V16.5536Z" fill="#E6E6E6"/>
<path d="M138.335 16.7717C141.751 16.7717 143.846 14.56 143.846 10.8946C143.846 7.25001 141.74 5.02794 138.335 5.02794C134.918 5.02794 132.813 7.25001 132.813 10.8946C132.813 14.56 134.907 16.7717 138.335 16.7717ZM138.335 14.7884C136.326 14.7884 135.198 13.3659 135.198 10.8946C135.198 8.44412 136.326 7.01119 138.335 7.01119C140.333 7.01119 141.472 8.44412 141.472 10.8946C141.472 13.3555 140.333 14.7884 138.335 14.7884Z" fill="#E6E6E6"/>
<path d="M150.728 14.8611C149.471 14.8611 148.558 14.2693 148.558 13.2517C148.558 12.2549 149.288 11.7253 150.9 11.6215L153.757 11.4449V12.3898C153.757 13.7916 152.468 14.8611 150.728 14.8611ZM150.137 16.7405C151.673 16.7405 152.952 16.0968 153.65 14.965H153.833V16.5536H156.056V8.8283C156.056 6.4401 154.402 5.02794 151.469 5.02794C148.816 5.02794 146.925 6.27396 146.688 8.21568H148.923C149.181 7.41615 150.073 6.95927 151.362 6.95927C152.941 6.95927 153.757 7.6342 153.757 8.8283V9.80435L150.588 9.98087C147.806 10.147 146.237 11.3203 146.237 13.3555C146.237 15.4218 147.881 16.7405 150.137 16.7405Z" fill="#E6E6E6"/>
<path d="M163.895 16.7405C165.506 16.7405 166.871 16.0033 167.569 14.7677H167.752V16.5536H169.965V0.833008H167.655V7.04234H167.483C166.849 5.79632 165.495 5.05909 163.895 5.05909C160.94 5.05909 159.039 7.3227 159.039 10.8946C159.039 14.4769 160.919 16.7405 163.895 16.7405ZM164.55 7.06311C166.484 7.06311 167.698 8.54795 167.698 10.905C167.698 13.2724 166.495 14.7365 164.55 14.7365C162.595 14.7365 161.424 13.2932 161.424 10.8946C161.424 8.5168 162.606 7.06311 164.55 7.06311Z" fill="#E6E6E6"/>
<path d="M184.943 16.7717C188.359 16.7717 190.454 14.56 190.454 10.8946C190.454 7.25001 188.348 5.02794 184.943 5.02794C181.526 5.02794 179.421 7.25001 179.421 10.8946C179.421 14.56 181.516 16.7717 184.943 16.7717ZM184.943 14.7884C182.934 14.7884 181.806 13.3659 181.806 10.8946C181.806 8.44412 182.934 7.01119 184.943 7.01119C186.941 7.01119 188.08 8.44412 188.08 10.8946C188.08 13.3555 186.941 14.7884 184.943 14.7884Z" fill="#E6E6E6"/>
<path d="M193.512 16.5536H195.821V9.93934C195.821 8.17414 196.906 7.07349 198.615 7.07349C200.323 7.07349 201.139 7.97686 201.139 9.79397V16.5536H203.449V9.23326C203.449 6.54393 202.009 5.02794 199.399 5.02794C197.637 5.02794 196.477 5.78594 195.907 7.04234H195.735V5.246H193.512V16.5536Z" fill="#E6E6E6"/>
<path d="M214.087 2.43207V5.29791H212.228V7.17733H214.087V13.5632C214.087 15.7437 215.107 16.6159 217.675 16.6159C218.126 16.6159 218.556 16.564 218.932 16.5017V14.6431C218.61 14.6742 218.406 14.695 218.051 14.695C216.902 14.695 216.397 14.1758 216.397 12.9921V7.17733H218.932V5.29791H216.397V2.43207H214.087Z" fill="#E6E6E6"/>
<path d="M222.033 16.5536H224.342V9.94972C224.342 8.23645 225.395 7.08388 227.286 7.08388C228.919 7.08388 229.789 7.99762 229.789 9.80435V16.5536H232.099V9.25403C232.099 6.5647 230.563 5.03833 228.07 5.03833C226.308 5.03833 225.073 5.79632 224.503 7.06311H224.321V0.833008H222.033V16.5536Z" fill="#E6E6E6"/>
<path d="M240.431 6.92812C242.139 6.92812 243.257 8.08069 243.31 9.85627H237.402C237.531 8.09108 238.723 6.92812 240.431 6.92812ZM243.3 13.5009C242.87 14.3835 241.914 14.8715 240.517 14.8715C238.669 14.8715 237.477 13.6151 237.402 11.6319V11.5072H245.663V10.7285C245.663 7.17733 243.697 5.02794 240.442 5.02794C237.144 5.02794 235.049 7.3227 235.049 10.9362C235.049 14.5496 237.101 16.7717 240.453 16.7717C243.128 16.7717 244.997 15.5257 245.524 13.5009H243.3Z" fill="#E6E6E6"/>
<path d="M188.515 27.4056V33.1372H184.798V36.8961H188.515V49.6678C188.515 54.0289 190.557 55.7733 195.692 55.7733C196.594 55.7733 197.454 55.6695 198.206 55.5449V51.8276C197.561 51.8899 197.153 51.9314 196.444 51.9314C194.145 51.9314 193.135 50.893 193.135 48.5256V36.8961H198.206V33.1372H193.135V27.4056H188.515Z" fill="#E6E6E6"/>
<path d="M211.288 56.0848C218.12 56.0848 222.31 51.6614 222.31 44.3307C222.31 37.0414 218.099 32.5973 211.288 32.5973C204.455 32.5973 200.244 37.0414 200.244 44.3307C200.244 51.6614 204.433 56.0848 211.288 56.0848ZM211.288 52.1183C207.27 52.1183 205.013 49.2732 205.013 44.3307C205.013 39.4297 207.27 36.5638 211.288 36.5638C215.284 36.5638 217.562 39.4297 217.562 44.3307C217.562 49.2524 215.284 52.1183 211.288 52.1183Z" fill="#E6E6E6"/>
<path d="M225.895 55.6487H230.514V42.2955C230.514 39.1181 232.985 36.9791 236.488 36.9791C237.304 36.9791 238.679 37.1245 239.066 37.2491V32.8465C238.572 32.7219 237.691 32.6596 237.003 32.6596C233.952 32.6596 231.352 34.2794 230.686 36.5015H230.342V33.0334H225.895V55.6487Z" fill="#E6E6E6"/>
<path d="M250.536 36.3977C253.953 36.3977 256.187 38.7028 256.295 42.254H244.477C244.735 38.7236 247.12 36.3977 250.536 36.3977ZM256.273 49.5432C255.414 51.3084 253.501 52.2844 250.708 52.2844C247.012 52.2844 244.627 49.7716 244.477 45.8051V45.5559H261V43.9984C261 36.8961 257.068 32.5973 250.558 32.5973C243.961 32.5973 239.772 37.1868 239.772 44.4137C239.772 51.6407 243.875 56.0848 250.579 56.0848C255.929 56.0848 259.668 53.5928 260.721 49.5432H256.273Z" fill="#E6E6E6"/>
<path d="M158.221 47.2972C158.577 52.8505 163.365 56.402 170.492 56.402C178.108 56.402 182.874 52.6783 182.874 46.7376C182.874 42.0668 180.157 39.4839 173.565 37.9987L170.024 37.1592C165.837 36.2122 164.145 34.9422 164.145 32.7252C164.145 29.927 166.773 28.0975 170.714 28.0975C174.456 28.0975 177.039 29.884 177.507 32.7467H182.362C182.072 27.5163 177.306 23.8356 170.781 23.8356C163.766 23.8356 159.09 27.5163 159.09 33.0481C159.09 37.6112 161.74 40.3233 167.552 41.6363L171.694 42.6049C175.948 43.5735 177.819 44.9941 177.819 47.3618C177.819 50.1169 174.879 52.1187 170.87 52.1187C166.572 52.1187 163.588 50.2461 163.165 47.2972H158.221Z" fill="#E6E6E6"/>
<path d="M110.367 32.6596C107.187 32.6596 104.437 34.1964 103.019 36.7715H102.675V33.0334H98.2272V63.1663H102.847V52.2221H103.212C104.437 54.6103 107.08 56.0225 110.41 56.0225C116.319 56.0225 120.079 51.5161 120.079 44.3307C120.079 37.1453 116.319 32.6596 110.367 32.6596ZM109.056 52.0145C105.189 52.0145 102.761 49.0655 102.761 44.3514C102.761 39.6166 105.189 36.6676 109.078 36.6676C112.988 36.6676 115.33 39.5543 115.33 44.3307C115.33 49.1278 112.988 52.0145 109.056 52.0145Z" fill="#E6E6E6"/>
<path d="M136.243 32.6596C133.063 32.6596 130.313 34.1964 128.895 36.7715H128.551V33.0334H124.104V63.1663H128.723V52.2221H129.088C130.313 54.6103 132.956 56.0225 136.286 56.0225C142.195 56.0225 145.955 51.5161 145.955 44.3307C145.955 37.1453 142.195 32.6596 136.243 32.6596ZM134.933 52.0145C131.065 52.0145 128.637 49.0655 128.637 44.3514C128.637 39.6166 131.065 36.6676 134.954 36.6676C138.865 36.6676 141.207 39.5543 141.207 44.3307C141.207 49.1278 138.865 52.0145 134.933 52.0145Z" fill="#E6E6E6"/>
<path d="M89.9389 55.6487H95.2391L83.6365 24.589H78.2694L66.6667 55.6487H71.7888L74.7508 47.4048H86.9992L89.9389 55.6487ZM80.6968 30.2284H81.0754L85.7299 43.3583H76.0201L80.6968 30.2284Z" fill="#E6E6E6"/>
</svg>
