<svg width="114" height="115" viewBox="0 0 114 115" fill="none" xmlns="http://www.w3.org/2000/svg">
<path d="M35.1514 67.7788L113.596 0.457657L41.9854 49.6936L35.1514 67.7788Z" fill="#004D80"/>
<path d="M35.1514 67.7788L113.596 0.457657L41.9854 49.6936L35.1514 67.7788Z" fill="#004D80"/>
<path d="M113.597 0.457607L28.3174 41.8018L0.301758 25.627L113.597 0.457607Z" fill="url(#paint0_linear_951_12094)"/>
<path d="M113.596 0.457451L41.9854 49.6934L70.0015 65.8682L113.596 0.457451Z" fill="url(#paint1_linear_951_12094)"/>
<path d="M41.986 49.6936L113.596 0.457657L28.3174 41.8018L35.152 67.7788L41.986 49.6936Z" fill="url(#paint2_linear_951_12094)"/>
<path d="M27.0703 41.0822L113.596 0.457607L28.3167 41.8018L27.0703 41.0822Z" fill="#A6D2F2"/>
<path d="M41.9854 49.6934L113.596 0.457439L43.1055 50.3401L41.9854 49.6934Z" fill="#A6D2F2"/>
<path fill-rule="evenodd" clip-rule="evenodd" d="M52.565 106.465L65.8182 114.117L74.9831 100.365C73.9517 99.4963 74.0413 98.3183 75.2481 97.5022L75.0936 97.4126L58.3497 87.7458C58.3498 87.7457 58.3499 87.7457 58.35 87.7457L75.0942 97.4127L75.2487 97.5023C74.0419 98.3184 73.9523 99.4964 74.9838 100.365L77.3963 96.7457C76.7947 96.8318 76.2198 96.9977 75.7216 97.2423L75.7212 97.2421C76.2193 96.9975 76.7941 96.8317 77.3957 96.7455L95.4418 69.6682L59.8557 77.5739L59.8555 77.5742L59.2898 77.6998L56.5307 83.6455C56.2593 83.6133 55.9835 83.5975 55.7076 83.5975C54.6628 83.5975 53.6185 83.8267 52.8207 84.2873C51.8497 84.8478 51.4728 85.6198 51.6828 86.3467L40.1885 88.125L28.6041 89.9165C28.604 89.9165 28.604 89.9164 28.604 89.9163L40.1878 88.1248L51.6821 86.3466C51.4721 85.6197 51.849 84.8477 52.8201 84.2871C53.6178 83.8266 54.6622 83.5973 55.707 83.5973C55.9828 83.5973 56.2586 83.6132 56.53 83.6454L59.2892 77.6997L18.4551 86.7715L22.1898 88.928C22.9469 88.5675 23.8739 88.3868 24.7994 88.3868C25.1886 88.3868 25.5776 88.4188 25.9537 88.483C25.5778 88.4189 25.1891 88.3869 24.8001 88.3869C23.8746 88.3869 22.9476 88.5677 22.1904 88.9282L27.9327 92.2432C27.9326 92.2432 27.9325 92.2433 27.9325 92.2433L36.6453 97.2734L37.4925 97.7627L47.6612 97.0313L52.565 106.465ZM51.8838 86.7821L51.8843 86.782C52.0829 87.0895 52.3924 87.3787 52.8207 87.6258C53.2873 87.8953 53.8377 88.085 54.423 88.1955C53.8374 88.085 53.2868 87.8953 52.8201 87.6257C52.3918 87.3786 52.0824 87.0895 51.8838 86.7821Z" fill="url(#paint3_linear_951_12094)"/>
<defs>
<linearGradient id="paint0_linear_951_12094" x1="79.1457" y1="46.3299" x2="-7.4691" y2="41.9301" gradientUnits="userSpaceOnUse">
<stop stop-color="#8FAEEA"/>
<stop offset="1" stop-color="#1D66A7"/>
</linearGradient>
<linearGradient id="paint1_linear_951_12094" x1="91.8204" y1="73.0322" x2="36.9549" y2="71.9188" gradientUnits="userSpaceOnUse">
<stop stop-color="#8FAEEA"/>
<stop offset="1" stop-color="#1D66A7"/>
</linearGradient>
<linearGradient id="paint2_linear_951_12094" x1="87.6647" y1="75.1521" x2="22.3359" y2="73.618" gradientUnits="userSpaceOnUse">
<stop stop-color="#163572"/>
<stop offset="1" stop-color="#1D66A7"/>
</linearGradient>
<linearGradient id="paint3_linear_951_12094" x1="72.0315" y1="118.985" x2="70.8189" y2="117.56" gradientUnits="userSpaceOnUse">
<stop stop-color="#203151"/>
<stop offset="1" stop-color="#021D36"/>
</linearGradient>
</defs>
</svg>
