<svg width="267" height="64" viewBox="0 0 267 64" fill="none" xmlns="http://www.w3.org/2000/svg">
<g filter="url(#filter0_ii_1239_7141)">
<path d="M1.86272 3.56983C1.21577 4.27235 0.833373 5.36262 0.833373 6.7745V57.2191C0.833373 58.6332 1.21577 59.7212 1.86272 60.4237L2.02724 60.588L29.5706 32.3298V31.9968V31.6638L2.02724 3.40332L1.86272 3.56983Z" fill="url(#paint0_linear_1239_7141)"/>
<path d="M38.7502 41.7537L29.5706 32.3313V31.9983V31.6653L38.7524 22.2451L38.9592 22.366L49.8374 28.7069C52.9432 30.518 52.9432 33.4809 49.8374 35.2942L38.9592 41.6351L38.7502 41.7537Z" fill="url(#paint1_linear_1239_7141)"/>
<g filter="url(#filter1_i_1239_7141)">
<path d="M38.9593 41.6336L29.5685 31.999L1.86279 60.426C2.88547 61.5391 4.57734 61.6759 6.48263 60.5674L38.9593 41.6336Z" fill="url(#paint2_linear_1239_7141)"/>
</g>
<path d="M38.9593 22.3641L6.48263 3.43257C4.57734 2.32177 2.88547 2.46091 1.86279 3.57399L29.5707 32.0009L38.9593 22.3641Z" fill="url(#paint3_linear_1239_7141)"/>
</g>
<path d="M84.5364 8.5544C84.5364 10.4699 83.9625 11.9946 82.8125 13.1329C81.5074 14.4861 79.8044 15.1627 77.7126 15.1627C75.7087 15.1627 74.0033 14.477 72.6034 13.1055C71.2011 11.7317 70.5 10.031 70.5 8.00123C70.5 5.96913 71.2011 4.26849 72.6034 2.89699C74.0033 1.52322 75.7087 0.837474 77.7126 0.837474C78.7076 0.837474 79.6586 1.02948 80.561 1.41121C81.4658 1.79523 82.19 2.30497 82.7315 2.94271L81.512 4.14962C80.5934 3.06386 79.3277 2.52212 77.7102 2.52212C76.2478 2.52212 74.9844 3.02957 73.9177 4.04448C72.851 5.05938 72.3188 6.3783 72.3188 7.99894C72.3188 9.61959 72.851 10.9385 73.9177 11.9534C74.9844 12.9683 76.2478 13.4758 77.7102 13.4758C79.2606 13.4758 80.5541 12.966 81.5884 11.9443C82.2595 11.2791 82.6482 10.3533 82.7523 9.167H77.7102V7.51892H84.4369C84.5063 7.8778 84.5364 8.22295 84.5364 8.5544Z" fill="#E6E6E6"/>
<path d="M95.2039 2.82626H88.8822V7.17389H94.5837V8.82197H88.8822V13.1696H95.2039V14.8565H87.0981V1.14162H95.2039V2.82626Z" fill="#E6E6E6"/>
<path d="M102.726 14.8565H100.942V2.82626H97.064V1.14162H106.604V2.82626H102.726V14.8565Z" fill="#E6E6E6"/>
<path d="M113.507 14.8565V1.14162H115.291V14.8565H113.507Z" fill="#E6E6E6"/>
<path d="M123.203 14.8565H121.419V2.82626H117.54V1.14162H127.081V2.82626H123.203V14.8565Z" fill="#E6E6E6"/>
<path d="M145.141 13.085C143.775 14.4702 142.079 15.1628 140.05 15.1628C138.021 15.1628 136.324 14.4702 134.962 13.085C133.596 11.6998 132.916 10.0037 132.916 7.99905C132.916 5.99439 133.596 4.29831 134.962 2.9131C136.324 1.5279 138.021 0.833008 140.05 0.833008C142.068 0.833008 143.761 1.53018 145.131 2.92225C146.501 4.31431 147.186 6.00582 147.186 7.99905C147.186 10.0037 146.503 11.6998 145.141 13.085ZM136.278 11.9352C137.306 12.9638 138.562 13.4759 140.05 13.4759C141.538 13.4759 142.797 12.9616 143.822 11.9352C144.849 10.9066 145.365 9.59455 145.365 7.99905C145.365 6.40355 144.849 5.09149 143.822 4.06287C142.797 3.03425 141.538 2.52223 140.05 2.52223C138.562 2.52223 137.306 3.03654 136.278 4.06287C135.253 5.09149 134.737 6.40355 134.737 7.99905C134.737 9.59455 135.253 10.9066 136.278 11.9352Z" fill="#E6E6E6"/>
<path d="M149.69 14.8565V1.14162H151.86L158.608 11.8095H158.684L158.608 9.16713V1.14162H160.392V14.8565H158.529L151.469 3.66973H151.393L151.469 6.31214V14.8565H149.69Z" fill="#E6E6E6"/>
<path d="M133.194 34.9913C127.752 34.9913 123.316 39.0807 123.316 44.7129C123.316 50.3109 127.752 54.4345 133.194 54.4345C138.639 54.4345 143.074 50.3109 143.074 44.7129C143.072 39.0807 138.636 34.9913 133.194 34.9913ZM133.194 50.6081C130.211 50.6081 127.64 48.1782 127.64 44.7152C127.64 41.2156 130.214 38.8224 133.194 38.8224C136.177 38.8224 138.747 41.2156 138.747 44.7152C138.747 48.1759 136.177 50.6081 133.194 50.6081ZM111.642 34.9913C106.199 34.9913 101.764 39.0807 101.764 44.7129C101.764 50.3109 106.199 54.4345 111.642 54.4345C117.087 54.4345 121.522 50.3109 121.522 44.7129C121.522 39.0807 117.087 34.9913 111.642 34.9913ZM111.642 50.6081C108.659 50.6081 106.088 48.1782 106.088 44.7152C106.088 41.2156 108.662 38.8224 111.642 38.8224C114.625 38.8224 117.195 41.2156 117.195 44.7152C117.198 48.1759 114.625 50.6081 111.642 50.6081ZM86.008 42.1002H95.9996C95.7011 44.4203 94.919 46.1141 93.725 47.2913C92.2719 48.7268 89.9973 50.3109 86.008 50.3109C79.8576 50.3109 75.0492 45.4124 75.0492 39.3367C75.0492 33.261 79.8576 28.3625 86.008 28.3625C89.3262 28.3625 91.7489 29.6517 93.5376 31.3089L96.4832 28.399C93.9842 26.0424 90.6683 24.2389 86.008 24.2389C77.583 24.2389 70.5 31.014 70.5 39.3367C70.5 47.6594 77.583 54.4345 86.008 54.4345C90.5549 54.4345 93.9865 52.9602 96.6684 50.1989C99.4266 47.4742 100.285 43.6432 100.285 40.5505C100.285 39.595 100.211 38.7104 100.061 37.9743H86.008V42.1002ZM190.848 41.1791C190.029 39.0075 187.53 34.9913 182.423 34.9913C177.353 34.9913 173.14 38.9321 173.14 44.7129C173.14 50.1623 177.316 54.4345 182.907 54.4345C187.417 54.4345 190.027 51.7098 191.11 50.1258L187.754 47.9154C186.637 49.536 185.107 50.6035 182.907 50.6035C180.708 50.6035 179.142 49.6092 178.135 47.6571L191.295 42.2808L190.848 41.1791ZM177.427 44.4203C177.316 40.6625 180.373 38.7492 182.573 38.7492C184.288 38.7492 185.741 39.5973 186.227 40.811L177.427 44.4203ZM166.73 53.8471H171.052V25.272H166.73V53.8471ZM159.496 37.1652C158.527 36.0222 156.662 34.9913 154.316 34.9913C149.394 34.9913 144.884 39.2635 144.884 44.7518C144.884 50.2012 149.394 54.4368 154.316 54.4368C156.664 54.4368 158.527 53.4059 159.496 52.2287H159.645V53.6276C159.645 57.3467 157.631 59.3353 154.39 59.3353C151.742 59.3353 150.102 57.4587 149.431 55.8746L145.666 57.4221C146.747 59.9982 149.616 63.1663 154.39 63.1663C159.459 63.1663 163.747 60.2199 163.747 53.0379V35.5834H159.647V37.1652H159.496ZM154.688 50.6081C151.705 50.6081 149.209 48.1394 149.209 44.7518C149.209 41.3253 151.705 38.8224 154.688 38.8224C157.631 38.8224 159.943 41.3253 159.943 44.7518C159.943 48.1394 157.631 50.6081 154.688 50.6081ZM211.104 25.272H200.759V53.8471H205.074V43.0214H211.102C215.887 43.0214 220.594 39.5996 220.594 34.1479C220.594 28.6962 215.89 25.272 211.104 25.272ZM211.215 39.0441H205.074V29.2494H211.215C214.443 29.2494 216.276 31.8895 216.276 34.1479C216.276 36.3605 214.443 39.0441 211.215 39.0441ZM237.9 34.9411C234.774 34.9411 231.536 36.3011 230.197 39.3161L234.029 40.8956C234.848 39.3161 236.375 38.7995 237.974 38.7995C240.207 38.7995 242.477 40.123 242.514 42.4751V42.77C241.732 42.3288 240.056 41.6682 238.011 41.6682C233.88 41.6682 229.674 43.9106 229.674 48.1005C229.674 51.9247 233.061 54.3865 236.856 54.3865C239.758 54.3865 241.359 53.0996 242.363 51.591H242.511V53.7968H246.681V42.8408C246.683 37.7709 242.847 34.9411 237.9 34.9411ZM237.377 50.6012C235.965 50.6012 233.992 49.9017 233.992 48.1737C233.992 45.9679 236.449 45.1221 238.571 45.1221C240.466 45.1221 241.361 45.5267 242.514 46.0776C242.178 48.7268 239.871 50.6012 237.377 50.6012ZM261.865 35.5651L256.916 47.9542H256.768L251.631 35.5651H246.98L254.683 52.8802L250.291 62.5126H254.794L266.667 35.5651H261.865ZM222.977 53.8471H227.293V25.272H222.977V53.8471Z" fill="#E6E6E6"/>
<defs>
<filter id="filter0_ii_1239_7141" x="0.833374" y="2.66602" width="51.3334" height="58.667" filterUnits="userSpaceOnUse" color-interpolation-filters="sRGB">
<feFlood flood-opacity="0" result="BackgroundImageFix"/>
<feBlend mode="normal" in="SourceGraphic" in2="BackgroundImageFix" result="shape"/>
<feColorMatrix in="SourceAlpha" type="matrix" values="0 0 0 0 0 0 0 0 0 0 0 0 0 0 0 0 0 0 127 0" result="hardAlpha"/>
<feOffset dy="-0.292188"/>
<feComposite in2="hardAlpha" operator="arithmetic" k2="-1" k3="1"/>
<feColorMatrix type="matrix" values="0 0 0 0 0 0 0 0 0 0 0 0 0 0 0 0 0 0 0.12 0"/>
<feBlend mode="normal" in2="shape" result="effect1_innerShadow_1239_7141"/>
<feColorMatrix in="SourceAlpha" type="matrix" values="0 0 0 0 0 0 0 0 0 0 0 0 0 0 0 0 0 0 127 0" result="hardAlpha"/>
<feOffset dy="0.292188"/>
<feComposite in2="hardAlpha" operator="arithmetic" k2="-1" k3="1"/>
<feColorMatrix type="matrix" values="0 0 0 0 1 0 0 0 0 1 0 0 0 0 1 0 0 0 0.25 0"/>
<feBlend mode="normal" in2="effect1_innerShadow_1239_7141" result="effect2_innerShadow_1239_7141"/>
</filter>
<filter id="filter1_i_1239_7141" x="1.86279" y="31.999" width="37.0966" height="29.334" filterUnits="userSpaceOnUse" color-interpolation-filters="sRGB">
<feFlood flood-opacity="0" result="BackgroundImageFix"/>
<feBlend mode="normal" in="SourceGraphic" in2="BackgroundImageFix" result="shape"/>
<feColorMatrix in="SourceAlpha" type="matrix" values="0 0 0 0 0 0 0 0 0 0 0 0 0 0 0 0 0 0 127 0" result="hardAlpha"/>
<feOffset dy="-0.292188"/>
<feComposite in2="hardAlpha" operator="arithmetic" k2="-1" k3="1"/>
<feColorMatrix type="matrix" values="0 0 0 0 0 0 0 0 0 0 0 0 0 0 0 0 0 0 0.08 0"/>
<feBlend mode="normal" in2="shape" result="effect1_innerShadow_1239_7141"/>
</filter>
<linearGradient id="paint0_linear_1239_7141" x1="27.1291" y1="6.24077" x2="-11.1365" y2="43.5385" gradientUnits="userSpaceOnUse">
<stop stop-color="#00A0FF"/>
<stop offset="0.0066" stop-color="#00A1FF"/>
<stop offset="0.2601" stop-color="#00BEFF"/>
<stop offset="0.5122" stop-color="#00D2FF"/>
<stop offset="0.7604" stop-color="#00DFFF"/>
<stop offset="1" stop-color="#00E3FF"/>
</linearGradient>
<linearGradient id="paint1_linear_1239_7141" x1="53.8803" y1="31.9983" x2="0.0876346" y2="31.9983" gradientUnits="userSpaceOnUse">
<stop stop-color="#FFE000"/>
<stop offset="0.4087" stop-color="#FFBD00"/>
<stop offset="0.7754" stop-color="#FFA500"/>
<stop offset="1" stop-color="#FF9C00"/>
</linearGradient>
<linearGradient id="paint2_linear_1239_7141" x1="33.8595" y1="37.2312" x2="-18.0335" y2="87.8116" gradientUnits="userSpaceOnUse">
<stop stop-color="#FF3A44"/>
<stop offset="1" stop-color="#C31162"/>
</linearGradient>
<linearGradient id="paint3_linear_1239_7141" x1="-5.11499" y1="-13.2185" x2="18.0567" y2="9.36704" gradientUnits="userSpaceOnUse">
<stop stop-color="#32A071"/>
<stop offset="0.0685" stop-color="#2DA771"/>
<stop offset="0.4762" stop-color="#15CF74"/>
<stop offset="0.8009" stop-color="#06E775"/>
<stop offset="1" stop-color="#00F076"/>
</linearGradient>
</defs>
</svg>
