<svg width="152" height="152" viewBox="0 0 152 152" fill="none" xmlns="http://www.w3.org/2000/svg">
<g clip-path="url(#clip0_2273_2747)">
<rect x="88.5449" y="25.167" width="7.14789" height="7.14789" rx="1.19132" fill="white"/>
<rect x="84.9844" y="38.2754" width="7.14789" height="7.14789" rx="1.19132" fill="white"/>
<rect x="73.0684" y="25.167" width="7.14789" height="7.14789" rx="1.19132" fill="white"/>
<rect x="57.5693" y="25.167" width="7.14789" height="7.14789" rx="1.19132" fill="white"/>
<path d="M61.1406 39.4667C61.1406 38.8088 61.674 38.2754 62.3319 38.2754H67.0972C67.7551 38.2754 68.2885 38.8088 68.2885 39.4667V44.232C68.2885 44.8899 67.7551 45.4233 67.0972 45.4233H62.3319C61.674 45.4233 61.1406 44.8899 61.1406 44.232V39.4667Z" fill="white"/>
<rect x="62.3379" y="63.2949" width="7.14789" height="7.14789" rx="1.19132" fill="white"/>
<rect x="62.3379" y="88.3145" width="7.14789" height="7.14789" rx="1.19132" fill="white"/>
<rect x="61.1406" y="110.944" width="7.14789" height="7.14789" rx="1.19132" fill="white"/>
<rect x="57.5693" y="122.861" width="7.14789" height="7.14789" rx="1.19132" fill="white"/>
<rect x="83.7705" y="63.2949" width="7.14789" height="7.14789" rx="1.19132" fill="white"/>
<rect x="83.7705" y="88.3145" width="7.14789" height="7.14789" rx="1.19132" fill="white"/>
<rect x="84.9844" y="110.944" width="7.14789" height="7.14789" rx="1.19132" fill="white"/>
<rect x="88.5449" y="122.861" width="7.14789" height="7.14789" rx="1.19132" fill="white"/>
<rect x="73.0684" y="122.861" width="7.14789" height="7.14789" rx="1.19132" fill="white"/>
<g clip-path="url(#clip1_2273_2747)">
<path d="M98.8352 52.4289C92.3201 52.4289 85.2764 53.4476 77.754 55.9029C70.234 53.4493 63.1855 52.4289 56.6727 52.4289H56.6663L56.6727 56.9731C62.7734 56.9748 69.0613 58.0184 75.367 60.0757L77.754 60.8547L80.1409 60.0757C86.4443 58.0167 92.7388 56.9731 98.8352 56.9731C105.152 56.9731 111.438 58.09 117.52 60.2939C122.519 62.1066 127.412 64.655 132.062 67.8708C134.941 69.8599 137.365 71.8657 139.309 73.6284C125.949 72.6762 113.88 74.1043 102.163 75.4909C93.7792 76.483 85.8626 77.4202 77.9548 77.4202C70.2738 77.4202 63.5717 76.5413 56.477 75.6109C45.8228 74.2128 33.8422 72.6412 16.0515 73.7549C23.2851 67.1466 37.5294 56.9729 56.6665 56.9729L56.6663 52.4289C24.7064 52.4289 5.53418 75.4909 5.53418 75.4909C21.9956 87.4475 36.9431 99.0477 55.6241 102.836C59.3886 103.595 71.0962 104.018 80.9787 104.018C87.4498 104.018 93.136 103.838 95.3046 103.456C114.766 100.02 132.702 88.0367 149.972 75.4909C149.972 75.4909 130.797 52.4289 98.8352 52.4289ZM93.938 99.0279C93.0652 99.1811 89.2392 99.474 80.9785 99.474C69.4165 99.474 59.6242 98.9414 57.1842 98.4454C49.2677 96.8408 41.6792 93.9344 33.3042 89.3003C27.4262 86.0511 21.6694 82.216 16.1308 78.3076C33.3482 77.1908 44.5708 78.6605 55.4453 80.0886C62.8044 81.054 69.7536 81.9661 77.9545 81.9661C86.334 81.9661 94.4754 81.0039 103.093 79.9821C114.629 78.6138 126.521 77.2089 139.423 78.2077C132.441 82.9916 126.182 86.7634 120.094 89.8628C110.9 94.5468 102.344 97.543 93.938 99.0279Z" fill="white"/>
</g>
</g>
<defs>
<clipPath id="clip0_2273_2747">
<rect width="151.2" height="151.2" fill="white"/>
</clipPath>
<clipPath id="clip1_2273_2747">
<rect width="144.438" height="52.5229" fill="white" transform="translate(5.53418 52.3691)"/>
</clipPath>
</defs>
</svg>
