<svg width="172" height="47" viewBox="0 0 172 47" fill="none" xmlns="http://www.w3.org/2000/svg">
<path d="M24.6961 32.0455C24.5785 32.0455 24.4633 32.0113 24.3632 31.9467C24.2632 31.882 24.1823 31.7896 24.1296 31.6796L21.2358 25.6455L20.0743 28.0714C20.0216 28.1814 19.9407 28.2739 19.8406 28.3385C19.7406 28.4031 19.6253 28.4373 19.5078 28.4373H15.6098C15.4488 28.4396 15.2928 28.379 15.1722 28.2674C15.0516 28.1558 14.9749 28.0012 14.9572 27.8337C14.9491 27.7417 14.9595 27.6488 14.9877 27.5612C15.0159 27.4736 15.0613 27.3931 15.1209 27.3249C15.1806 27.2567 15.2532 27.2024 15.3341 27.1653C15.415 27.1282 15.5025 27.1093 15.5908 27.1097H19.116L20.6693 23.8674C20.7218 23.757 20.8027 23.6642 20.9029 23.5993C21.0031 23.5344 21.1185 23.5 21.2363 23.5C21.3541 23.5 21.4696 23.5344 21.5698 23.5993C21.6699 23.6642 21.7508 23.757 21.8034 23.8674L24.6966 29.9015L25.8581 27.4756C25.9108 27.3656 25.9916 27.2732 26.0916 27.2086C26.1915 27.144 26.3067 27.1097 26.4241 27.1097H30.3205C30.4815 27.1069 30.6377 27.1671 30.7586 27.2784C30.8796 27.3896 30.9566 27.5441 30.9747 27.7116C30.9827 27.8036 30.9722 27.8964 30.944 27.9839C30.9158 28.0715 30.8704 28.1519 30.8107 28.22C30.7511 28.2881 30.6785 28.3425 30.5976 28.3795C30.5168 28.4165 30.4294 28.4355 30.3411 28.4351H26.8175L25.2626 31.6796C25.2099 31.7896 25.129 31.882 25.0289 31.9467C24.9289 32.0113 24.8137 32.0455 24.6961 32.0455Z" fill="white" stroke="white" stroke-width="0.5" stroke-miterlimit="10"/>
<path d="M32.1464 36.3182H13.7859C12.2073 36.3182 10.8288 35.4839 10.0978 34.0866C9.73927 33.417 9.57438 32.661 9.62154 31.9032C9.6687 31.1453 9.92605 30.4155 10.3648 29.7954L18.8112 17.6112V13.2423C18.3001 13.1037 17.8494 12.7999 17.5295 12.3785C17.2097 11.957 17.0388 11.4416 17.0435 10.9129C17.0559 9.59588 18.1591 8.54545 19.4783 8.54545H26.4534C27.7726 8.54545 28.8764 9.59331 28.8882 10.9129C28.893 11.4416 28.722 11.957 28.4022 12.3785C28.0824 12.7999 27.6316 13.1037 27.1205 13.2423V17.6112L35.5669 29.7954C36.0056 30.4155 36.263 31.1453 36.3103 31.9031C36.3575 32.6609 36.1928 33.4169 35.8345 34.0866C35.1034 35.4839 33.7244 36.3182 32.1464 36.3182ZM19.3613 9.78425C19.1885 9.78439 19.0179 9.82295 18.8619 9.89713C18.7059 9.97131 18.5684 10.0792 18.4594 10.2131C18.3504 10.347 18.2726 10.5034 18.2317 10.671C18.1908 10.8386 18.1879 11.0132 18.223 11.1821C18.3318 11.7235 18.8251 12.1028 19.3783 12.1028H19.5546C19.6856 12.1028 19.8112 12.1547 19.9038 12.2472C19.9965 12.3397 20.0485 12.4651 20.0485 12.5958V18.0116L11.4134 30.4665C10.7767 31.3846 10.6891 32.5884 11.2257 33.5683C11.4738 34.0304 11.8439 34.4157 12.2959 34.6826C12.7479 34.9494 13.2644 35.0875 13.7895 35.082H32.0876C33.212 35.082 34.2595 34.4644 34.7601 33.4603C34.997 32.9949 35.1022 32.4737 35.0643 31.9531C35.0264 31.4324 34.8469 30.9319 34.5451 30.5056L25.8817 18.0116V12.5958C25.8817 12.4651 25.9337 12.3397 26.0263 12.2472C26.119 12.1547 26.2446 12.1028 26.3756 12.1028H26.489C27.0421 12.1028 27.5355 11.7235 27.6443 11.1821C27.6794 11.0132 27.6764 10.8387 27.6356 10.6711C27.5947 10.5035 27.517 10.3471 27.408 10.2133C27.2991 10.0795 27.1617 9.97151 27.0057 9.89729C26.8498 9.82308 26.6793 9.78446 26.5065 9.78425H19.3613Z" fill="white" stroke="white" stroke-width="0.5" stroke-miterlimit="10"/>
<path d="M16.6643 2.1325C16.485 1.57191 15.8841 1.26051 15.3322 1.46508C12.1703 2.63713 9.29344 4.47761 6.90054 6.86546C4.25586 9.50456 2.27855 12.7362 1.13262 16.2923C-0.013304 19.8485 -0.294814 23.6266 0.311444 27.3133C0.917703 30.9999 2.39425 34.4889 4.61862 37.4908C6.84298 40.4927 9.75104 42.921 13.1016 44.5742C16.4521 46.2274 20.1485 47.0579 23.8842 46.9969C27.6199 46.9358 31.2872 45.9848 34.5819 44.223C37.5629 42.6288 40.1612 40.4124 42.2029 37.7285C42.5593 37.2601 42.4363 36.5946 41.9522 36.2599V36.2599C41.4681 35.9251 40.8063 36.048 40.4479 36.5148C38.6003 38.9207 36.2589 40.9091 33.5768 42.3434C30.5809 43.9455 27.2463 44.8101 23.8494 44.8657C20.4525 44.9212 17.0913 44.1661 14.0447 42.6628C10.9981 41.1595 8.35377 38.9515 6.33116 36.2219C4.30854 33.4922 2.96592 30.3197 2.41465 26.9674C1.86337 23.6151 2.11935 20.1797 3.16134 16.9461C4.20333 13.7125 6.0013 10.7739 8.40611 8.37421C10.5591 6.22576 13.1429 4.56462 15.9825 3.49746C16.5334 3.29039 16.8436 2.6931 16.6643 2.1325V2.1325Z" fill="white"/>
<path d="M56.372 32.836C53.1613 32.836 50.632 31.8467 48.784 29.868L50.604 27.348C52.2093 29.0653 54.1787 29.924 56.512 29.924C57.7627 29.924 58.696 29.672 59.312 29.168C59.9467 28.664 60.264 28.0667 60.264 27.376C60.264 26.6667 59.8907 26.1067 59.144 25.696C58.3973 25.2667 57.492 24.9307 56.428 24.688C55.364 24.4453 54.2907 24.156 53.208 23.82C52.144 23.484 51.2387 22.9147 50.492 22.112C49.7453 21.3093 49.372 20.2733 49.372 19.004C49.372 17.436 49.9973 16.1387 51.248 15.112C52.5173 14.0667 54.16 13.544 56.176 13.544C59.0507 13.544 61.384 14.412 63.176 16.148L61.3 18.584C59.8813 17.1653 58.08 16.456 55.896 16.456C54.9253 16.456 54.1507 16.6707 53.572 17.1C53.012 17.5107 52.732 18.0707 52.732 18.78C52.732 19.2467 52.928 19.6387 53.32 19.956C53.7307 20.2733 54.2533 20.5347 54.888 20.74C55.5227 20.9267 56.2227 21.1133 56.988 21.3C57.772 21.4867 58.5467 21.72 59.312 22C60.096 22.2613 60.8053 22.588 61.44 22.98C62.0747 23.372 62.588 23.9133 62.98 24.604C63.3907 25.2947 63.596 26.116 63.596 27.068C63.596 28.748 62.9893 30.1293 61.776 31.212C60.5627 32.2947 58.7613 32.836 56.372 32.836ZM79.157 32.5H76.217V24.044C76.217 22.1773 75.3117 21.244 73.501 21.244C72.7917 21.244 72.129 21.4213 71.513 21.776C70.897 22.1307 70.4023 22.56 70.029 23.064V32.5H67.089V18.976H70.029V20.824C70.533 20.2267 71.205 19.7133 72.045 19.284C72.885 18.8547 73.7997 18.64 74.789 18.64C76.2263 18.64 77.309 19.0133 78.037 19.76C78.7837 20.5067 79.157 21.58 79.157 22.98V32.5ZM89.6397 32.836C87.5491 32.836 85.8691 32.1547 84.5997 30.792C83.3304 29.4107 82.6957 27.7213 82.6957 25.724C82.6957 23.7267 83.3304 22.0467 84.5997 20.684C85.8691 19.3213 87.5491 18.64 89.6397 18.64C91.7491 18.64 93.4384 19.3213 94.7077 20.684C95.9771 22.0467 96.6117 23.7267 96.6117 25.724C96.6117 27.74 95.9771 29.4293 94.7077 30.792C93.4384 32.1547 91.7491 32.836 89.6397 32.836ZM89.6397 30.232C90.8531 30.232 91.8051 29.8027 92.4957 28.944C93.2051 28.0667 93.5597 26.9933 93.5597 25.724C93.5597 24.4733 93.2051 23.4187 92.4957 22.56C91.8051 21.6827 90.8531 21.244 89.6397 21.244C88.4451 21.244 87.4931 21.6827 86.7837 22.56C86.0931 23.4187 85.7477 24.4733 85.7477 25.724C85.7477 26.9933 86.0931 28.0667 86.7837 28.944C87.4931 29.8027 88.4451 30.232 89.6397 30.232ZM103.087 32.5H100.147V18.976H103.087V20.964C103.609 20.292 104.263 19.7413 105.047 19.312C105.831 18.8827 106.643 18.668 107.483 18.668V21.58C107.221 21.524 106.913 21.496 106.559 21.496C105.943 21.496 105.28 21.6827 104.571 22.056C103.88 22.4107 103.385 22.8213 103.087 23.288V32.5ZM116.658 32.836C114.604 32.836 112.906 32.1827 111.562 30.876C110.236 29.5507 109.574 27.8333 109.574 25.724C109.574 23.7453 110.218 22.0747 111.506 20.712C112.812 19.3307 114.455 18.64 116.434 18.64C118.431 18.64 120.036 19.3307 121.25 20.712C122.482 22.0933 123.098 23.8573 123.098 26.004V26.704H112.654C112.766 27.768 113.204 28.6547 113.97 29.364C114.735 30.0733 115.734 30.428 116.966 30.428C117.656 30.428 118.347 30.2973 119.038 30.036C119.747 29.7747 120.335 29.4107 120.802 28.944L122.146 30.876C120.783 32.1827 118.954 32.836 116.658 32.836ZM120.242 24.632C120.204 23.6987 119.859 22.868 119.206 22.14C118.571 21.412 117.647 21.048 116.434 21.048C115.276 21.048 114.371 21.412 113.718 22.14C113.064 22.8493 112.7 23.68 112.626 24.632H120.242ZM138.151 32.5H126.643V13.824H129.919V29.616H138.151V32.5ZM152.511 32.5H149.571V31.044C148.526 32.2387 147.07 32.836 145.203 32.836C143.971 32.836 142.879 32.444 141.927 31.66C140.975 30.8573 140.499 29.756 140.499 28.356C140.499 26.9187 140.966 25.8267 141.899 25.08C142.851 24.3333 143.952 23.96 145.203 23.96C147.126 23.96 148.582 24.5387 149.571 25.696V23.68C149.571 22.896 149.282 22.28 148.703 21.832C148.124 21.384 147.359 21.16 146.407 21.16C144.895 21.16 143.56 21.7293 142.403 22.868L141.199 20.824C142.73 19.368 144.624 18.64 146.883 18.64C148.544 18.64 149.898 19.032 150.943 19.816C151.988 20.6 152.511 21.8413 152.511 23.54V32.5ZM146.351 30.82C147.826 30.82 148.899 30.3533 149.571 29.42V27.376C148.899 26.4427 147.826 25.976 146.351 25.976C145.511 25.976 144.82 26.2 144.279 26.648C143.738 27.096 143.467 27.684 143.467 28.412C143.467 29.14 143.738 29.728 144.279 30.176C144.82 30.6053 145.511 30.82 146.351 30.82ZM159.823 28.44C160.14 28.944 160.625 29.3733 161.279 29.728C161.951 30.064 162.623 30.232 163.295 30.232C164.452 30.232 165.376 29.8213 166.067 29C166.776 28.16 167.131 27.0773 167.131 25.752C167.131 24.4267 166.776 23.344 166.067 22.504C165.376 21.664 164.452 21.244 163.295 21.244C162.623 21.244 161.96 21.4213 161.307 21.776C160.653 22.1307 160.159 22.5693 159.823 23.092V28.44ZM159.823 32.5H156.883V13.824H159.823V20.852C160.924 19.3773 162.371 18.64 164.163 18.64C165.917 18.64 167.355 19.2933 168.475 20.6C169.595 21.888 170.155 23.6053 170.155 25.752C170.155 27.936 169.595 29.6627 168.475 30.932C167.355 32.2013 165.917 32.836 164.163 32.836C162.389 32.836 160.943 32.108 159.823 30.652V32.5Z" fill="white"/>
</svg>
