<svg width="152" height="152" viewBox="0 0 152 152" fill="none" xmlns="http://www.w3.org/2000/svg">
<path d="M72.8006 14C11.7341 13.9996 2.68446 97.5157 5.57906 124.505C5.59512 124.655 5.69355 124.762 5.84086 124.794C11.7462 126.065 31.6276 128.391 33.6001 124.742C42.0006 109.2 28.0006 39.2 75.6006 39.2C112.001 39.2 112.271 84.2144 116.04 121.77L116.315 124.511C116.329 124.65 116.415 124.767 116.549 124.807C118.244 125.316 129.943 128.552 145.344 126.041C145.493 126.017 145.608 125.926 145.632 125.777C148.399 108.376 148.713 14.0005 72.8006 14Z" stroke="white" stroke-width="5" stroke-linecap="round"/>
</svg>
