<svg width="80" height="80" viewBox="0 0 80 80" fill="none" xmlns="http://www.w3.org/2000/svg">
<g filter="url(#filter0_i_827_7453)">
<rect width="75.8113" height="75.8113" rx="37.9057" fill="#E6E6E6"/>
<path d="M36.916 18.8755C18.0199 18.8754 15.2197 44.7181 16.1154 53.0695C16.1203 53.1159 16.1508 53.149 16.1964 53.1589C18.0237 53.5523 24.1757 54.2721 24.786 53.1428C27.3854 48.3336 23.0533 26.6732 37.7824 26.6732C49.0458 26.6732 49.1293 40.6022 50.2956 52.2233L50.3807 53.0714C50.385 53.1145 50.4119 53.1506 50.4534 53.163C50.9779 53.3203 54.5978 54.3218 59.3634 53.5449C59.4095 53.5374 59.445 53.5092 59.4524 53.4631C60.3088 48.0785 60.406 18.8756 36.916 18.8755Z" stroke="#020F1E" stroke-width="1.54717" stroke-linecap="round"/>
</g>
<defs>
<filter id="filter0_i_827_7453" x="0" y="0" width="75.8115" height="77.0493" filterUnits="userSpaceOnUse" color-interpolation-filters="sRGB">
<feFlood flood-opacity="0" result="BackgroundImageFix"/>
<feBlend mode="normal" in="SourceGraphic" in2="BackgroundImageFix" result="shape"/>
<feColorMatrix in="SourceAlpha" type="matrix" values="0 0 0 0 0 0 0 0 0 0 0 0 0 0 0 0 0 0 127 0" result="hardAlpha"/>
<feOffset dy="1.23774"/>
<feGaussianBlur stdDeviation="7.42641"/>
<feComposite in2="hardAlpha" operator="arithmetic" k2="-1" k3="1"/>
<feColorMatrix type="matrix" values="0 0 0 0 0 0 0 0 0 0 0 0 0 0 0 0 0 0 0.05 0"/>
<feBlend mode="normal" in2="shape" result="effect1_innerShadow_827_7453"/>
</filter>
</defs>
</svg>
