<svg width="80" height="80" viewBox="0 0 80 80" fill="none" xmlns="http://www.w3.org/2000/svg">
<g filter="url(#filter0_i_827_7452)">
<rect width="75.8113" height="75.8113" rx="37.9057" fill="#E6E6E6"/>
<g clip-path="url(#clip0_827_7452)">
<rect x="41.7871" y="22.3311" width="2.2118" height="2.2118" rx="0.368633" fill="#020F1E"/>
<rect x="40.6855" y="26.3872" width="2.2118" height="2.2118" rx="0.368633" fill="#020F1E"/>
<rect x="36.998" y="22.3311" width="2.2118" height="2.2118" rx="0.368633" fill="#020F1E"/>
<rect x="32.2021" y="22.3311" width="2.2118" height="2.2118" rx="0.368633" fill="#020F1E"/>
<path d="M33.3076 26.7558C33.3076 26.5523 33.4727 26.3872 33.6763 26.3872H35.1508C35.3544 26.3872 35.5194 26.5522 35.5194 26.7558V28.2304C35.5194 28.434 35.3544 28.599 35.1508 28.599H33.6763C33.4727 28.599 33.3076 28.434 33.3076 28.2304V26.7558Z" fill="#020F1E"/>
<rect x="33.6777" y="34.1289" width="2.2118" height="2.2118" rx="0.368633" fill="#020F1E"/>
<rect x="33.6777" y="41.8711" width="2.2118" height="2.2118" rx="0.368633" fill="#020F1E"/>
<rect x="33.3076" y="48.8735" width="2.2118" height="2.2118" rx="0.368633" fill="#020F1E"/>
<rect x="32.2021" y="52.5605" width="2.2118" height="2.2118" rx="0.368633" fill="#020F1E"/>
<rect x="40.3105" y="34.1289" width="2.2118" height="2.2118" rx="0.368633" fill="#020F1E"/>
<rect x="40.3105" y="41.8711" width="2.2118" height="2.2118" rx="0.368633" fill="#020F1E"/>
<rect x="40.6855" y="48.8735" width="2.2118" height="2.2118" rx="0.368633" fill="#020F1E"/>
<rect x="41.7871" y="52.5605" width="2.2118" height="2.2118" rx="0.368633" fill="#020F1E"/>
<rect x="36.998" y="52.5605" width="2.2118" height="2.2118" rx="0.368633" fill="#020F1E"/>
<g clip-path="url(#clip1_827_7452)">
<path d="M44.9721 30.7667C42.9561 30.7667 40.7765 31.0819 38.4488 31.8416C36.1219 31.0824 33.9408 30.7667 31.9256 30.7667H31.9236L31.9256 32.1728C33.8133 32.1733 35.759 32.4962 37.7102 33.1328L38.4488 33.3739L39.1874 33.1328C41.1379 32.4957 43.0856 32.1728 44.9721 32.1728C46.9267 32.1728 48.8717 32.5184 50.7539 33.2004C52.3007 33.7613 53.8146 34.5498 55.2537 35.5449C56.1443 36.1604 56.8945 36.7811 57.4961 37.3265C53.3619 37.0319 49.6273 37.4738 46.0019 37.9028C43.4076 38.2098 40.9579 38.4998 38.511 38.4998C36.1342 38.4998 34.0604 38.2279 31.865 37.94C28.5682 37.5073 24.861 37.021 19.356 37.3657C21.5943 35.3208 26.002 32.1727 31.9236 32.1727L31.9236 30.7667C22.0341 30.7667 16.1016 37.9028 16.1016 37.9028C21.1953 41.6026 25.8206 45.1921 31.6011 46.3644C32.766 46.5993 36.3887 46.7301 39.4467 46.7301C41.449 46.7301 43.2085 46.6745 43.8796 46.556C49.9015 45.4929 55.4515 41.7849 60.7955 37.9028C60.7955 37.9028 54.8622 30.7667 44.9721 30.7667ZM43.4567 45.186C43.1866 45.2334 42.0027 45.324 39.4466 45.324C35.8689 45.324 32.8388 45.1592 32.0838 45.0057C29.6342 44.5092 27.2861 43.6099 24.6945 42.1759C22.8757 41.1705 21.0944 39.9838 19.3805 38.7744C24.7082 38.4288 28.1808 38.8836 31.5458 39.3255C33.8229 39.6242 35.9732 39.9065 38.5109 39.9065C41.1038 39.9065 43.623 39.6087 46.2896 39.2925C49.8591 38.8692 53.5391 38.4344 57.5314 38.7435C55.3709 40.2238 53.434 41.3909 51.5504 42.35C48.7053 43.7994 46.0578 44.7265 43.4567 45.186Z" fill="#020F1E"/>
</g>
</g>
</g>
<defs>
<filter id="filter0_i_827_7452" x="0" y="0" width="75.8115" height="77.0493" filterUnits="userSpaceOnUse" color-interpolation-filters="sRGB">
<feFlood flood-opacity="0" result="BackgroundImageFix"/>
<feBlend mode="normal" in="SourceGraphic" in2="BackgroundImageFix" result="shape"/>
<feColorMatrix in="SourceAlpha" type="matrix" values="0 0 0 0 0 0 0 0 0 0 0 0 0 0 0 0 0 0 127 0" result="hardAlpha"/>
<feOffset dy="1.23774"/>
<feGaussianBlur stdDeviation="7.42641"/>
<feComposite in2="hardAlpha" operator="arithmetic" k2="-1" k3="1"/>
<feColorMatrix type="matrix" values="0 0 0 0 0 0 0 0 0 0 0 0 0 0 0 0 0 0 0.05 0"/>
<feBlend mode="normal" in2="shape" result="effect1_innerShadow_827_7452"/>
</filter>
<clipPath id="clip0_827_7452">
<rect width="46.7864" height="46.7864" fill="white" transform="translate(14.3887 14.5435)"/>
</clipPath>
<clipPath id="clip1_827_7452">
<rect width="44.694" height="16.2524" fill="white" transform="translate(16.1016 30.748)"/>
</clipPath>
</defs>
</svg>
