<svg width="30" height="30" viewBox="0 0 30 30" fill="none" xmlns="http://www.w3.org/2000/svg">
<path d="M27.3436 19.4774L27.3433 19.4774C26.6271 19.5216 25.7452 19.912 24.7103 20.4685C24.4062 20.6321 24.0893 20.8098 23.7647 20.9918C23.0293 21.4041 22.2549 21.8384 21.5025 22.1791L21.2962 21.7236L21.5025 22.1791C20.0819 22.8222 18.3114 22.8727 16.9475 22.7814C16.2563 22.7352 15.65 22.651 15.2162 22.5784C14.999 22.542 14.8243 22.5084 14.703 22.4837C14.6423 22.4713 14.5949 22.4612 14.5622 22.454L14.5243 22.4456L14.5138 22.4432L14.5108 22.4425L14.5098 22.4423L14.5095 22.4422C14.5094 22.4422 14.5093 22.4421 14.6231 21.9553L14.5093 22.4421L13.1068 22.1142L14.4108 21.5026C14.6048 21.4115 14.915 21.3091 15.2462 21.2085C15.5875 21.1048 15.9859 20.993 16.3752 20.8847C16.4479 20.8645 16.5202 20.8445 16.5918 20.8246C16.9065 20.7373 17.2076 20.6538 17.4658 20.5788C17.7946 20.4833 18.0156 20.4122 18.1078 20.3718C19.3496 19.8253 19.8341 19.0246 19.9232 18.4545C19.9688 18.1624 19.9119 17.9445 19.8305 17.8184C19.7578 17.706 19.6581 17.6475 19.5146 17.6497C18.7008 17.6634 18.0544 17.7691 17.1655 17.9354C17.0561 17.9558 16.9433 17.9772 16.8264 17.9993C15.9902 18.1573 14.9423 18.3554 13.4282 18.5619L13.428 18.562C12.3855 18.7037 11.2648 18.7693 10.2205 18.8305C9.94191 18.8468 9.66879 18.8628 9.40403 18.8799C8.11066 18.9631 7.05575 19.0704 6.4037 19.3194L27.3436 19.4774ZM27.3436 19.4774C27.7036 19.455 28.1078 19.5421 28.3806 19.7165C28.512 19.8005 28.5971 19.8943 28.6447 19.9896C28.6836 20.0676 28.7081 20.1676 28.694 20.303C28.6699 20.3343 28.632 20.3791 28.5771 20.438C28.4506 20.5739 28.261 20.7559 28.0131 20.9743C27.5192 21.4097 26.8181 21.9686 25.9841 22.5604C24.3109 23.7476 22.1401 25.0407 20.0678 25.7414C19.6744 25.8739 19.4306 25.9457 19.1219 25.9966C18.8035 26.0492 18.405 26.0813 17.7031 26.119L17.7029 26.119C17.151 26.1489 16.6877 26.1751 16.2824 26.198C14.2656 26.3121 13.6813 26.3451 10.7366 26.3451C10.2084 26.3451 9.61887 26.601 9.08751 26.9035C8.53695 27.217 7.96813 27.6286 7.46062 28.0306C6.95115 28.4342 6.49301 28.8366 6.16284 29.1374C6.09599 29.1983 6.03428 29.2552 5.97835 29.3071M27.3436 19.4774L5.97835 29.3071M5.97835 29.3071L1.444 24.9117C1.53085 24.7788 1.64137 24.6115 1.7716 24.4185C2.11409 23.9109 2.59137 23.2272 3.13174 22.5202C3.67331 21.8117 4.27186 21.0882 4.8568 20.4972C5.4547 19.893 5.99028 19.4774 6.40368 19.3194L5.97835 29.3071ZM28.716 20.2723C28.7187 20.2673 28.7204 20.2646 28.7206 20.2646C28.7208 20.2645 28.7195 20.2671 28.716 20.2723Z" fill="white" stroke="white"/>
<path d="M12.9364 12.1933L12.9364 12.1935C12.9385 12.2656 12.9903 12.3265 13.059 12.3414L13.0971 13.3089C13.0362 13.3272 12.9895 13.3854 12.9895 13.4576C12.9895 13.5183 13.0237 13.5714 13.078 13.5976L14.0102 14.0477L13.078 14.498C13.0236 14.5243 12.9895 14.5774 12.9895 14.6379C12.9895 14.7259 13.0606 14.7953 13.1451 14.7953H13.5455H13.9635L14.0376 15.2067C14.1198 15.6632 14.5196 16.0093 14.9998 16.0093C15.4793 16.0093 15.8784 15.6635 15.9602 15.2071L16.034 14.7953H16.4523H16.8537C16.9388 14.7953 17.0099 14.7253 17.0099 14.6379C17.0099 14.5791 16.976 14.5249 16.9201 14.4979L15.9904 14.048L16.9199 13.5978C16.9759 13.5707 17.0099 13.5164 17.0099 13.4576C17.0099 13.3885 16.965 13.3287 16.8996 13.3082L15.0899 12.7432L16.9429 12.3423C17.0124 12.3272 17.0635 12.2664 17.0655 12.195L17.0656 12.1941C17.1083 10.8057 17.8071 9.78095 18.3992 8.91275L18.4232 8.87757L12.9364 12.1933ZM12.9364 12.1933C12.8939 10.8052 12.196 9.78294 11.6046 8.91687M12.9364 12.1933L11.6046 8.91687M14.7085 10.6225L14.8531 11.4465L14.956 12.0331L14.3605 12.033L13.6892 12.0328L13.2617 12.0327L13.1954 11.6104C13.0101 10.4303 12.3985 9.52542 11.8349 8.70065L11.8344 8.69979L11.8184 8.67637C11.149 7.69244 10.4978 6.73517 10.4978 5.04937L14.7085 10.6225ZM14.7085 10.6225L15.2896 10.6225L15.1449 11.4469L15.042 12.0332L15.6372 12.0334L16.3125 12.0335L16.7401 12.0336L16.8065 11.6112C16.9921 10.4316 17.6023 9.52759 18.164 8.7025L18.1641 8.70245L18.1763 8.68453C18.8485 7.69693 19.5003 6.73947 19.5003 5.04935C19.5003 2.68192 17.4496 0.813046 14.9998 0.813046C12.5502 0.813046 10.4977 2.68166 10.4978 5.04935L14.7085 10.6225ZM11.6046 8.91687C11.5955 8.90342 11.5863 8.89 11.5772 8.87663L11.6046 8.91687ZM14.9998 0.5C17.6782 0.5 19.8135 2.56487 19.8136 5.04931L11.5771 8.8765C10.8585 7.82291 10.1853 6.82922 10.1853 5.04935C10.1853 2.56481 12.3207 0.5 14.9998 0.5Z" fill="white" stroke="white"/>
</svg>
