<svg width="30" height="30" viewBox="0 0 30 30" fill="none" xmlns="http://www.w3.org/2000/svg">
<g clip-path="url(#clip0_1088_3537)">
<path d="M21.5188 11.1451C20.9647 11.1451 20.4804 11.4384 20.2087 11.8774V11.3761C20.2087 10.525 19.5187 9.83501 18.6676 9.83501C18.1135 9.83501 17.6292 10.1284 17.3576 10.5673V10.2203C17.3576 9.36914 16.6676 8.67914 15.8164 8.67914C15.2624 8.67914 14.778 8.9725 14.5064 9.41143V4.74925C14.5064 3.89813 13.8164 3.20813 12.9653 3.20813C12.1141 3.20813 11.4241 3.89813 11.4241 4.74925V16.343L9.69599 14.1272C9.1726 13.456 8.20407 13.3362 7.53298 13.8597C6.86178 14.3831 6.74214 15.3517 7.26554 16.0228L12.1107 22.235C12.8401 23.3222 14.0803 24.0394 15.485 24.0394H18.5016C20.9648 24.0394 23.06 22.0435 23.06 19.481C23.06 18.7895 23.06 13.3099 23.06 12.6861C23.0599 11.8351 22.3699 11.1451 21.5188 11.1451Z" fill="white"/>
<path d="M22.1163 25.5911H12.9027C12.3817 25.5911 11.9592 26.0135 11.9592 26.5346V29.0565C11.9592 29.5776 12.3817 30 12.9027 30H22.1163C22.6374 30 23.0598 29.5776 23.0598 29.0565V26.5346C23.0598 26.0135 22.6374 25.5911 22.1163 25.5911Z" fill="white"/>
<path d="M9.24599 5.75228C9.80731 5.75228 10.2625 5.29719 10.2625 4.73578C10.2625 3.24549 11.4749 2.033 12.9652 2.033C14.4554 2.033 15.6678 3.24549 15.6678 4.73578C15.6678 5.29719 16.123 5.75228 16.6843 5.75228C17.2457 5.75228 17.7008 5.29719 17.7008 4.73578C17.7007 2.12439 15.5764 0 12.9652 0C10.354 0 8.22949 2.12439 8.22949 4.73578C8.22949 5.29709 8.68458 5.75228 9.24599 5.75228Z" fill="white"/>
</g>
<defs>
<clipPath id="clip0_1088_3537">
<rect width="30" height="30" fill="white"/>
</clipPath>
</defs>
</svg>
