<svg width="30" height="30" viewBox="0 0 30 30" fill="none" xmlns="http://www.w3.org/2000/svg">
<path d="M23.5278 15.2371C23.5278 14.865 23.2061 14.5635 22.8093 14.5635C22.7952 14.5635 22.7403 14.5635 22.7261 14.5635H20.0073V5.85317C20.0073 3.14279 17.6551 0.9375 14.7639 0.9375C11.8728 0.9375 9.52069 3.14279 9.52069 5.85317V14.5635H6.82032C6.80299 14.5635 6.73597 14.5635 6.71856 14.5635C6.32177 14.5635 6 14.865 6 15.2371C6 19.5401 9.54794 23.0785 14.0453 23.4225V27.7154H10.522C10.1251 27.7154 9.80343 28.017 9.80343 28.389C9.80343 28.761 10.1251 29.0627 10.522 29.0627H19.0062C19.4029 29.0627 19.7248 28.761 19.7248 28.389C19.7248 28.017 19.4029 27.7154 19.0062 27.7154H15.4825V23.4225C19.9798 23.0785 23.5278 19.5401 23.5278 15.2371ZM10.9577 14.6719H18.5701V15.3594C18.5701 17.3274 16.8624 18.9284 14.7639 18.9284C12.6654 18.9284 10.9577 17.3272 10.9577 15.3594V14.6719ZM14.7639 2.28481C16.8626 2.28481 18.5701 3.88532 18.5701 5.8531V13.3245H10.9577V5.85317C10.9577 3.88532 12.6652 2.28481 14.7639 2.28481ZM7.47371 15.9108H9.55572C9.84935 18.3625 12.0718 20.2755 14.7639 20.2755C17.4561 20.2755 19.6785 18.3625 19.9721 15.9108H22.0541C21.6918 19.3825 18.5613 22.1051 14.7639 22.1051C10.9665 22.1051 7.83592 19.3825 7.47371 15.9108Z" fill="white"/>
<path fill-rule="evenodd" clip-rule="evenodd" d="M9.02069 5.85317C9.02069 2.88393 11.5966 0.46875 14.7639 0.46875C17.9312 0.46875 20.5073 2.88391 20.5073 5.85317V14.0947H22.8084C23.4813 14.0947 24.0278 14.6061 24.0278 15.2371C24.0278 19.6391 20.5167 23.2826 15.9825 23.8438V27.2466H19.0062C19.679 27.2466 20.2248 27.7581 20.2248 28.389C20.2248 29.0199 19.679 29.5314 19.0062 29.5314H10.522C9.84896 29.5314 9.30343 29.0199 9.30343 28.389C9.30343 27.7582 9.84896 27.2466 10.522 27.2466H13.5453V23.8438C9.01103 23.2826 5.5 19.6391 5.5 15.2371C5.5 14.6061 6.04566 14.0947 6.71856 14.0947H9.02069V5.85317ZM14.7639 1.40625C12.1489 1.40625 10.0207 3.40165 10.0207 5.85317V15.0322H6.7192C6.59851 15.0322 6.5 15.124 6.5 15.2371C6.5 19.2936 9.84552 22.631 14.0859 22.9553L14.5453 22.9905V28.1841H10.522C10.4013 28.1841 10.3034 28.2759 10.3034 28.389C10.3034 28.5022 10.4013 28.5939 10.522 28.5939H19.0062C19.1268 28.5939 19.2248 28.5021 19.2248 28.389C19.2248 28.2759 19.1268 28.1841 19.0062 28.1841H14.9825V22.9905L15.4418 22.9553C19.6823 22.631 23.0278 19.2935 23.0278 15.2371C23.0278 15.124 22.93 15.0322 22.8093 15.0322H19.5073V5.85317C19.5073 3.40167 17.3789 1.40625 14.7639 1.40625ZM14.7639 2.75356C12.9414 2.75356 11.4577 4.14422 11.4577 5.85317V12.8558H18.0701V5.8531C18.0701 4.14422 16.5865 2.75356 14.7639 2.75356ZM10.4577 5.85317C10.4577 3.62642 12.3891 1.81606 14.7639 1.81606C17.1387 1.81606 19.0701 3.62641 19.0701 5.8531V13.7933H10.4577V5.85317ZM10.9577 14.6719H10.4577V15.3594C10.4577 17.586 12.3892 19.3971 14.7639 19.3971C17.1386 19.3971 19.0701 17.5863 19.0701 15.3594V14.2032H10.9577V14.6719ZM18.0701 15.1407H11.4577V15.3594C11.4577 17.0684 12.9416 18.4596 14.7639 18.4596C16.5862 18.4596 18.0701 17.0686 18.0701 15.3594V15.1407ZM6.92242 15.442H10.0027L10.0526 15.8585C10.3182 18.0764 12.3299 19.8067 14.7639 19.8067C17.198 19.8067 19.2096 18.0764 19.4752 15.8585L19.5251 15.442H22.6054L22.5518 15.9564C22.1646 19.6656 18.8214 22.5739 14.7639 22.5739C10.7064 22.5739 7.36306 19.6656 6.97609 15.9564L6.92242 15.442ZM8.04765 16.3795C8.62371 19.3645 11.4164 21.6364 14.7639 21.6364C18.1113 21.6364 20.904 19.3645 21.4802 16.3795H20.4014C19.8913 18.8622 17.5598 20.7442 14.7639 20.7442C11.968 20.7442 9.63649 18.8622 9.12643 16.3795H8.04765Z" fill="white"/>
</svg>
