<svg width="30" height="30" viewBox="0 0 30 30" fill="none" xmlns="http://www.w3.org/2000/svg">
<g clip-path="url(#clip0_1088_3573)">
<path d="M8.58834 12.2402C8.59456 12.1438 8.56221 12.0489 8.49848 11.9764L5.61417 8.69498C5.55044 8.62248 5.46049 8.57826 5.36407 8.57204C5.26726 8.56586 5.1728 8.59816 5.1003 8.66189C3.77495 9.82689 2.67486 11.2008 1.8304 12.7455C1.78412 12.8302 1.77329 12.9299 1.80044 13.0225C1.8276 13.1151 1.89044 13.1932 1.9752 13.2395L5.80878 15.335C5.86422 15.3653 5.92407 15.3797 5.98314 15.3797C6.11192 15.3797 6.23677 15.3112 6.3029 15.1902C6.86103 14.1692 7.58863 13.2608 8.46535 12.4902C8.53799 12.4265 8.58221 12.3366 8.58834 12.2402Z" fill="white"/>
<path d="M9.87555 11.0249C9.94094 11.1482 10.0671 11.2184 10.1975 11.2184C10.2551 11.2184 10.3134 11.2048 10.3678 11.1759C11.3953 10.631 12.5007 10.2754 13.6533 10.119C13.8525 10.092 13.9922 9.90858 13.9652 9.70932L13.378 5.38011C13.3509 5.18089 13.167 5.04143 12.9682 5.06824C11.2179 5.30564 9.53937 5.84555 7.97942 6.67295C7.80182 6.76716 7.73423 6.98746 7.82834 7.16515L9.87555 11.0249Z" fill="white"/>
<path d="M5.18554 16.8836L0.96902 15.7396C0.875833 15.7144 0.776422 15.7271 0.692647 15.7751C0.608873 15.8232 0.547647 15.9025 0.522304 15.9957C0.175784 17.2733 0 18.5975 0 19.9316C0 20.1598 0.00544118 20.3889 0.0167647 20.6317C0.0258333 20.8269 0.186765 20.979 0.380196 20.979C0.385882 20.979 0.391667 20.9789 0.397353 20.9786L4.76162 20.7769C4.85804 20.7725 4.94887 20.7299 5.01382 20.6586C5.07887 20.5872 5.11294 20.4929 5.10843 20.3965C5.10083 20.2327 5.09716 20.0806 5.09716 19.9316C5.09716 19.0482 5.21309 18.1731 5.44172 17.3303C5.49422 17.1363 5.37956 16.9363 5.18554 16.8836Z" fill="white"/>
<path d="M21.5065 6.41289C19.9177 5.64695 18.2202 5.1723 16.4611 5.00181C16.3645 4.9921 16.2691 5.02181 16.1945 5.08313C16.1199 5.1445 16.0729 5.23294 16.0636 5.32911L15.6424 9.67774C15.6229 9.87784 15.7695 10.0558 15.9697 10.0752C17.1291 10.1875 18.2473 10.5001 19.2932 11.0043C19.3429 11.0283 19.397 11.0405 19.4513 11.0405C19.4918 11.0405 19.5324 11.0337 19.5714 11.0201C19.6625 10.9883 19.7373 10.9215 19.7792 10.8345L21.6763 6.89887C21.7637 6.71779 21.6876 6.50014 21.5065 6.41289Z" fill="white"/>
<path d="M27.9237 12.5202C27.9472 12.4266 27.9327 12.3275 27.8831 12.2446C26.9796 10.733 25.8276 9.40225 24.4592 8.28936C24.3842 8.22848 24.2886 8.19995 24.1922 8.20961C24.0961 8.21956 24.008 8.26716 23.9471 8.34206L21.1904 11.7315C21.1295 11.8064 21.1007 11.9025 21.1107 11.9985C21.1206 12.0945 21.1682 12.1827 21.2431 12.2437C22.1485 12.9799 22.9106 13.8601 23.5081 14.8598C23.5763 14.9738 23.6971 15.0372 23.821 15.0372C23.8846 15.0372 23.9489 15.0205 24.0074 14.9855L27.7575 12.7439C27.8403 12.6944 27.9001 12.6139 27.9237 12.5202Z" fill="white"/>
<path d="M29.316 15.4421C29.2558 15.2502 29.0515 15.1433 28.8598 15.2036L24.6907 16.5098C24.4988 16.5699 24.3921 16.7742 24.4522 16.966C24.7514 17.9212 24.9031 18.9189 24.9031 19.9314C24.9031 20.0805 24.8994 20.2326 24.8918 20.3963C24.8873 20.4927 24.9213 20.5871 24.9864 20.6584C25.0515 20.7298 25.1422 20.7724 25.2386 20.7768L29.6029 20.9784C29.6087 20.9787 29.6144 20.9788 29.6201 20.9788C29.8134 20.9788 29.9744 20.8267 29.9835 20.6316C29.9947 20.3887 30.0003 20.1597 30.0003 19.9314C30.0002 18.4013 29.7701 16.8909 29.316 15.4421Z" fill="white"/>
<path d="M14.987 19.1585C14.9242 19.1585 14.8617 19.1605 14.7995 19.1639L8.88531 15.6744C8.74056 15.5889 8.55678 15.6103 8.43551 15.7266C8.31414 15.8429 8.28502 16.0256 8.36413 16.1737L11.5904 22.2205C11.5785 22.337 11.5722 22.4546 11.5722 22.5732C11.5722 23.4854 11.9274 24.3429 12.5723 24.9879C13.2173 25.6329 14.0749 25.988 14.987 25.988C15.8992 25.988 16.7567 25.6328 17.4016 24.9879C18.0466 24.3429 18.4018 23.4854 18.4018 22.5732C18.4018 21.6611 18.0466 20.8036 17.4016 20.1586C16.7567 19.5137 15.8991 19.1585 14.987 19.1585Z" fill="white"/>
</g>
<defs>
<clipPath id="clip0_1088_3573">
<rect width="30" height="30" fill="white"/>
</clipPath>
</defs>
</svg>
