<svg width="30" height="30" viewBox="0 0 30 30" fill="none" xmlns="http://www.w3.org/2000/svg">
<g clip-path="url(#clip0_1088_3564)">
<path d="M26.9242 18.8246H24.4393V16.3396C24.4393 15.3037 23.5994 14.4639 22.5637 14.4639C21.5275 14.4639 20.6879 15.3037 20.6879 16.3396V18.8246H18.2027C17.167 18.8246 16.3271 19.6644 16.3271 20.7003C16.3271 21.7363 17.1671 22.576 18.2027 22.576H20.6879V25.0612C20.6879 26.0969 21.5276 26.9368 22.5637 26.9368C23.5995 26.9368 24.4393 26.0969 24.4393 25.0612V22.576H26.9242C27.9604 22.576 28.7998 21.7363 28.7998 20.7003C28.7999 19.6645 27.9604 18.8246 26.9242 18.8246Z" fill="white"/>
<path d="M18.8124 24.4516H18.203C16.1344 24.4516 14.4517 22.7687 14.4517 20.7002C14.4517 18.6316 16.1344 16.9488 18.203 16.9488H18.8124V16.3395C18.8124 14.2709 20.4952 12.5881 22.5639 12.5881C24.6324 12.5881 26.3152 14.2709 26.3152 16.3395V16.9488H26.9244C27.173 16.9488 27.4159 16.9737 27.6512 17.0201C30.9306 13.2402 30.7768 7.49456 27.1848 3.90205C25.366 2.08341 22.948 1.08179 20.3761 1.08179C18.4377 1.08179 16.5782 1.65458 15.0006 2.71856C13.4229 1.65458 11.5635 1.08179 9.62517 1.08179C7.05339 1.08179 4.63539 2.08341 2.81651 3.90214C-0.938853 7.6579 -0.938853 13.7691 2.81661 17.525L13.3966 28.1049C13.5057 28.2138 13.6213 28.3236 13.7402 28.4315C14.0977 28.756 14.5491 28.9183 15.0008 28.9183C15.4517 28.9183 15.9026 28.7565 16.2598 28.4329C16.3798 28.3242 16.4964 28.2134 16.6063 28.1034L18.8899 25.82C18.8392 25.5748 18.8126 25.3209 18.8126 25.0611V24.4517H18.8124V24.4516Z" fill="white"/>
</g>
<defs>
<clipPath id="clip0_1088_3564">
<rect width="30" height="30" fill="white"/>
</clipPath>
</defs>
</svg>
