<svg width="30" height="30" viewBox="0 0 30 30" fill="none" xmlns="http://www.w3.org/2000/svg">
<g clip-path="url(#clip0_1088_3546)">
<path d="M29.8876 11.9521L26.6041 7.55222L28.367 2.35298C28.4363 2.14832 28.3835 1.922 28.2307 1.7694C28.1223 1.66107 27.9769 1.60303 27.8286 1.60303C27.7678 1.60303 27.7064 1.61279 27.6468 1.63284L22.4478 3.39577L18.0481 0.11245C17.9479 0.037941 17.8284 0 17.7083 0C17.6203 0 17.5319 0.0203921 17.4507 0.0619115C17.2581 0.159852 17.1377 0.358724 17.1407 0.57485L17.211 6.06419L12.7286 9.23412C12.5524 9.35873 12.462 9.57334 12.4957 9.78633C12.5296 9.99995 12.6817 10.1756 12.8881 10.24L18.1306 11.8692L19.7598 17.112C19.7878 17.2014 19.8366 17.2811 19.9005 17.3447C19.9838 17.4282 20.0925 17.4847 20.2135 17.5042C20.243 17.5089 20.2727 17.5112 20.302 17.5112C20.4844 17.5112 20.6584 17.4229 20.7657 17.2712L23.9358 12.7888L29.4246 12.8592C29.427 12.8592 29.4293 12.8592 29.4316 12.8592C29.6454 12.8592 29.8407 12.7399 29.938 12.5494C30.0362 12.3567 30.0164 12.1255 29.8876 11.9521Z" fill="white"/>
<path d="M12.7294 12.5691L0.97372 24.325C-0.324509 25.623 -0.324313 27.728 0.97372 29.0263C2.27205 30.3247 4.37694 30.3247 5.67497 29.0266L17.4305 17.2708L16.316 13.6841L12.7294 12.5691Z" fill="white"/>
</g>
<defs>
<clipPath id="clip0_1088_3546">
<rect width="30" height="30" fill="white"/>
</clipPath>
</defs>
</svg>
