<svg width="56" height="57" viewBox="0 0 56 57" fill="none" xmlns="http://www.w3.org/2000/svg">
<path d="M0.25 28.5C0.25 13.1741 12.6741 0.75 28 0.75C43.3259 0.75 55.75 13.1741 55.75 28.5C55.75 43.8259 43.3259 56.25 28 56.25C12.6741 56.25 0.25 43.8259 0.25 28.5Z" fill="#0077B5"/>
<path fill-rule="evenodd" clip-rule="evenodd" d="M21.4315 15.5762C21.4315 17.3905 20.0659 18.8422 17.8731 18.8422H17.8329C15.7216 18.8422 14.3567 17.3905 14.3567 15.5762C14.3567 13.7236 15.7632 12.3125 17.9145 12.3125C20.0659 12.3125 21.3907 13.7236 21.4315 15.5762ZM21.0172 21.4216V40.3167H14.7284V21.4216H21.0172ZM43.6967 40.3159L43.697 29.4821C43.697 23.6783 40.5945 20.9771 36.4563 20.9771C33.1173 20.9771 31.6225 22.8111 30.7878 24.0977V21.4213H24.4983C24.5812 23.1944 24.4983 40.3164 24.4983 40.3164H30.7878V29.7639C30.7878 29.1992 30.8286 28.6358 30.9949 28.2315C31.4494 27.1033 32.4842 25.9353 34.2216 25.9353C36.4982 25.9353 37.4082 27.6679 37.4082 30.2071V40.3159H43.6967Z" fill="#E6E6E6"/>
</svg>
