<svg width="31" height="30" viewBox="0 0 31 30" fill="none" xmlns="http://www.w3.org/2000/svg">
<path d="M23.4728 6.17822L24.3212 7.02722L15.3272 16.0212L14.4788 15.1728L23.4728 6.17822Z" fill="#17A2FF" fill-opacity="0.8"/>
<path d="M24.5 12H23.3V7.2H18.5V6H24.5V12Z" fill="#17A2FF" fill-opacity="0.8"/>
<path d="M21.5 22.8H9.49995C8.47995 22.8 7.69995 22.02 7.69995 21V8.99995C7.69995 7.97995 8.47995 7.19995 9.49995 7.19995H16.1V8.39995H9.49995C9.13995 8.39995 8.89995 8.63995 8.89995 8.99995V21C8.89995 21.36 9.13995 21.6 9.49995 21.6H21.5C21.86 21.6 22.1 21.36 22.1 21V14.4H23.3V21C23.3 22.02 22.52 22.8 21.5 22.8Z" fill="#17A2FF" fill-opacity="0.8"/>
</svg>
