<svg width="56" height="57" viewBox="0 0 56 57" fill="none" xmlns="http://www.w3.org/2000/svg">
<path d="M51.0158 6.92065C50.811 6.74105 50.5196 6.69938 50.2727 6.81393L5.64788 27.5479C5.40764 27.6595 5.25293 27.8992 5.25004 28.1641C5.24715 28.429 5.39677 28.672 5.63468 28.7887L18.2634 34.9864C18.495 35.1001 18.7711 35.0744 18.978 34.9198L31.2566 25.7427L21.6174 35.6578C21.4798 35.7993 21.4097 35.993 21.4248 36.1897L22.3846 48.6886C22.4059 48.9656 22.5915 49.2024 22.8554 49.2892C22.926 49.3123 22.9985 49.3235 23.0701 49.3235C23.2666 49.3235 23.4578 49.2392 23.5908 49.0852L30.2937 41.3179L38.5799 45.2771C38.7597 45.363 38.9679 45.3666 39.1507 45.2871C39.3335 45.2075 39.4726 45.0526 39.5323 44.8626L51.2184 7.64358C51.3 7.38367 51.2204 7.10024 51.0158 6.92065Z" fill="#64B5F6"/>
</svg>
