<svg width="693" height="693" viewBox="0 0 693 693" fill="none" xmlns="http://www.w3.org/2000/svg">
<path d="M390.639 346.441C392.871 346.441 394.681 348.25 394.681 350.482C394.681 375.66 375.247 396.381 350.592 398.441V403.177C350.592 405.278 348.889 406.981 346.789 406.981C344.425 406.981 342.51 405.064 342.51 402.701V398.441C317.855 396.381 298.421 375.66 298.421 350.482C298.421 348.25 300.231 346.441 302.463 346.441C304.695 346.441 306.505 348.25 306.505 350.482C306.505 372.563 324.47 390.529 346.551 390.529C368.633 390.529 386.598 372.564 386.598 350.482C386.598 348.25 388.407 346.441 390.639 346.441Z" fill="#17A2FF"/>
<path d="M346.551 376.568C360.935 376.568 372.637 364.866 372.637 350.482V312.085C372.637 297.702 360.935 286 346.551 286C332.167 286 320.465 297.702 320.465 312.085V350.482C320.465 364.866 332.167 376.568 346.551 376.568ZM328.549 312.085C328.549 302.159 336.624 294.083 346.551 294.083C356.478 294.083 364.553 302.159 364.553 312.085V350.482C364.553 360.409 356.478 368.484 346.551 368.484C336.624 368.484 328.549 360.409 328.549 350.482V312.085Z" fill="#17A2FF"/>
<circle cx="346.5" cy="346.5" r="132.5" fill="white" fill-opacity="0.03"/>
<circle cx="346.5" cy="346.5" r="221.5" fill="white" fill-opacity="0.02"/>
<circle cx="346.5" cy="346.5" r="346.5" fill="white" fill-opacity="0.02"/>
</svg>
