<svg width="30" height="30" viewBox="0 0 30 30" fill="none" xmlns="http://www.w3.org/2000/svg">
<g clip-path="url(#clip0_1124_611)">
<path d="M29.9064 11.4706C29.6814 10.7779 29.0825 10.273 28.3617 10.1683L20.3147 8.99891L16.716 1.70729C16.3937 1.05411 15.7284 0.640625 15.0001 0.640625C14.2717 0.640625 13.6064 1.05411 13.2841 1.70729L9.68548 8.99891L1.63858 10.1683C0.917748 10.273 0.318925 10.7779 0.0938768 11.4706C-0.131172 12.1633 0.056524 12.9237 0.578141 13.4321L6.40087 19.1081L5.02632 27.1225C4.90328 27.8403 5.19838 28.5659 5.78754 28.9941C6.37681 29.4222 7.15803 29.4785 7.80283 29.1396L15.0001 25.3557L22.1973 29.1396C22.4773 29.2869 22.783 29.3595 23.0876 29.3595C23.4843 29.3595 23.8792 29.2362 24.2126 28.9941C24.8019 28.5659 25.097 27.8403 24.9739 27.1225L23.5994 19.1081L29.4221 13.4322C29.9438 12.9239 30.1315 12.1634 29.9064 11.4706ZM20.2076 17.0697C19.7565 17.5094 19.5508 18.1427 19.6572 18.7634L20.5463 23.9478L15.8906 21.5001C15.3332 21.207 14.6674 21.207 14.1096 21.5001L9.45381 23.9478L10.343 18.7634C10.4494 18.1427 10.2437 17.5094 9.79263 17.0697L6.02592 13.3979L11.2314 12.6415C11.8547 12.5509 12.3935 12.1594 12.6721 11.5947L15.0002 6.87778L17.3282 11.5947C17.607 12.1595 18.1458 12.551 18.7689 12.6415L23.9744 13.3979L20.2076 17.0697Z" fill="white"/>
</g>
<defs>
<clipPath id="clip0_1124_611">
<rect width="30" height="30" fill="white"/>
</clipPath>
</defs>
</svg>
