<svg width="30" height="30" viewBox="0 0 30 30" fill="none" xmlns="http://www.w3.org/2000/svg">
<path d="M15.0001 17.0933C16.156 17.0933 17.0931 16.1562 17.0931 15.0002C17.0931 13.8443 16.156 12.9072 15.0001 12.9072C13.8442 12.9072 12.9071 13.8443 12.9071 15.0002C12.9071 16.1562 13.8442 17.0933 15.0001 17.0933Z" fill="white"/>
<path d="M26.2568 15C26.38 14.8414 26.4991 14.6825 26.6137 14.5235C28.5582 11.8246 29.0471 9.33029 27.9903 7.49994C27.3602 6.40852 25.9149 5.10738 22.6081 5.10738C21.9777 5.10738 21.3149 5.15643 20.6284 5.251C20.5527 5.06514 20.4747 4.88262 20.3944 4.70402C19.0292 1.67057 17.1135 0 15 0C12.8864 0 10.9707 1.67057 9.60573 4.70391C9.52533 4.88256 9.44735 5.06508 9.37164 5.25094C8.68498 5.15643 8.02229 5.10732 7.39176 5.10732C4.08502 5.10732 2.63969 6.4084 2.00957 7.49994C0.952777 9.33029 1.44168 11.8246 3.38618 14.5235C3.50073 14.6825 3.61991 14.8413 3.74313 14.9999C3.61996 15.1585 3.50084 15.3173 3.38629 15.4763C1.4418 18.1752 0.952953 20.6695 2.00969 22.4999C2.63981 23.5913 4.08508 24.8923 7.39188 24.8924C7.39211 24.8924 7.392 24.8924 7.39217 24.8924C8.02258 24.8924 8.68516 24.8434 9.3717 24.7489C9.44741 24.9349 9.52539 25.1174 9.60578 25.296C10.9707 28.3294 12.8864 30 15 30C17.1135 30 19.0292 28.3294 20.3942 25.2961C20.4746 25.1174 20.5527 24.9349 20.6283 24.7489C21.3149 24.8434 21.9776 24.8924 22.608 24.8926C22.6083 24.8926 22.6083 24.8926 22.6087 24.8926C25.9145 24.8926 27.36 23.5915 27.9902 22.5001C29.047 20.6697 28.558 18.1754 26.6136 15.4765C26.4991 15.3174 26.3799 15.1586 26.2568 15ZM7.39182 22.7994C5.591 22.7994 4.32332 22.3213 3.82217 21.4534C3.20629 20.3866 3.69291 18.6026 5.14891 16.6106C5.97315 17.4605 6.91041 18.2894 7.93709 19.0777C8.10637 20.3604 8.35533 21.5859 8.67907 22.7242C8.23281 22.7735 7.80203 22.7994 7.39182 22.7994ZM7.69539 16.1609C7.27176 15.7791 6.87321 15.3912 6.50207 14.9996C6.86758 14.614 7.26561 14.2259 7.69545 13.8385C7.68168 14.223 7.67436 14.6104 7.67436 15C7.67436 15.3894 7.68162 15.7764 7.69539 16.1609ZM7.93709 10.9222C6.91059 11.7104 5.9735 12.539 5.14938 13.3888C5.1277 13.3591 5.10549 13.3296 5.08422 13.3C3.67065 11.338 3.21063 9.60551 3.82205 8.54648C4.32321 7.67853 5.59088 7.20041 7.39164 7.20041C7.80192 7.20041 8.2327 7.22643 8.67907 7.27564C8.35539 8.41395 8.10637 9.63949 7.93709 10.9222ZM19.658 9.25488C19.3318 9.05068 19.0001 8.8507 18.6626 8.65588C18.3285 8.46287 17.9927 8.2776 17.6562 8.09895C18.1971 7.92346 18.7301 7.77223 19.2507 7.64643C19.4013 8.15414 19.5378 8.69098 19.658 9.25488ZM15 2.09303C16.2319 2.09303 17.5336 3.40652 18.5306 5.66361C17.3851 5.95219 16.1984 6.34857 14.9999 6.84457C13.8014 6.34857 12.6147 5.95219 11.4693 5.66367C12.4663 3.40652 13.7681 2.09303 15 2.09303ZM10.7491 7.64631C11.2698 7.77217 11.8027 7.92334 12.3436 8.09883C12.0071 8.27748 11.6714 8.46281 11.3372 8.6557C10.9998 8.85059 10.668 9.05057 10.3418 9.25471C10.462 8.69086 10.5986 8.15408 10.7491 7.64631ZM10.3418 20.7451C10.6679 20.9493 10.9997 21.1492 11.3371 21.344C11.6712 21.537 12.007 21.7223 12.3435 21.9011C11.8026 22.0765 11.2697 22.2278 10.749 22.3536C10.5985 21.8459 10.462 21.309 10.3418 20.7451ZM15 27.907C13.7681 27.907 12.4663 26.5934 11.4694 24.3363C12.6148 24.0478 13.8016 23.6513 15.0001 23.1553C16.1986 23.6512 17.3853 24.0476 18.5308 24.3362C17.5336 26.5934 16.2319 27.907 15 27.907ZM19.2508 22.3536C18.7301 22.2277 18.1972 22.0765 17.6563 21.9011C17.9928 21.7224 18.3285 21.5371 18.6627 21.3441C19.0002 21.1494 19.3319 20.9493 19.6581 20.7452C19.5378 21.3089 19.4013 21.8458 19.2508 22.3536ZM20.0896 17.9385C19.3278 18.4851 18.5029 19.0195 17.6162 19.5315C16.7546 20.0289 15.8765 20.4772 14.9999 20.8715C14.1233 20.4772 13.2452 20.0289 12.3836 19.5315C11.5158 19.0304 10.6878 18.4962 9.91018 17.9381C9.81766 17.0052 9.76739 16.0237 9.76739 15C9.76739 13.9761 9.81778 12.9944 9.9103 12.0614C10.6721 11.5148 11.497 10.9804 12.3837 10.4684C13.2453 9.97096 14.1234 9.52272 14.9999 9.12844C15.8765 9.52272 16.7546 9.97096 17.6162 10.4684C18.503 10.9804 19.3279 11.5148 20.0897 12.0615C20.1822 12.9945 20.2326 13.9761 20.2326 15C20.2325 16.0239 20.1821 17.0055 20.0896 17.9385ZM22.6081 7.20041C24.4088 7.20041 25.6765 7.67848 26.1777 8.54643C26.7936 9.61324 26.3069 11.3974 24.8509 13.3893C24.0266 12.5394 23.0894 11.7105 22.0628 10.9223C21.8935 9.63955 21.6445 8.414 21.3208 7.27559C21.7672 7.22643 22.1978 7.20041 22.6081 7.20041ZM22.3045 13.8385C22.7344 14.226 23.1324 14.6142 23.498 15C23.1324 15.3857 22.7344 15.7738 22.3045 16.1613C22.3182 15.7768 22.3255 15.3895 22.3255 15C22.3255 14.6104 22.3182 14.2232 22.3045 13.8385ZM26.1777 21.4535C25.6765 22.3215 24.4093 22.7995 22.6088 22.7995C22.6087 22.7995 22.6083 22.7995 22.6081 22.7995C22.1978 22.7995 21.7672 22.7735 21.3208 22.7242C21.6445 21.5859 21.8935 20.3604 22.0628 19.0777C23.0894 18.2893 24.0266 17.4606 24.8509 16.6107C26.3069 18.6026 26.7936 20.3867 26.1777 21.4535Z" fill="white"/>
</svg>
