<svg width="30" height="30" viewBox="0 0 30 30" fill="none" xmlns="http://www.w3.org/2000/svg">
<path d="M22.3093 13.3891L13.5818 7.0504C12.9761 6.61046 12.175 6.54762 11.5079 6.88757C10.841 7.22746 10.421 7.91275 10.421 8.66132V21.3387C10.421 22.0874 10.841 22.7725 11.5079 23.1122C11.7933 23.2576 12.1029 23.3293 12.4118 23.3293C12.8245 23.3293 13.2353 23.2011 13.5818 22.9493L22.3093 16.6106C22.825 16.2363 23.13 15.6375 23.13 14.9998C23.13 14.3625 22.825 13.7634 22.3093 13.3891Z" fill="white"/>
<path d="M15.0002 0C6.72908 0 0.000335693 6.72905 0.000335693 15C0.000335693 23.2708 6.7292 30 15.0002 30C23.2712 30 29.9999 23.2708 29.9999 15C29.9998 6.72905 23.2713 0 15.0002 0ZM15.0002 26.3139C8.7618 26.3139 3.68633 21.2385 3.68633 15C3.68633 8.76147 8.7618 3.68625 15.0002 3.68625C21.2386 3.68625 26.3141 8.76147 26.3141 15C26.3141 21.2385 21.2386 26.3139 15.0002 26.3139Z" fill="white"/>
</svg>
