<svg width="30" height="30" viewBox="0 0 30 30" fill="none" xmlns="http://www.w3.org/2000/svg">
<path d="M15.0001 4.30078C9.10053 4.30078 4.30087 9.10049 4.30087 15.0001C4.30087 20.8997 9.10053 25.6994 15.0001 25.6994C20.8997 25.6994 25.6995 20.8998 25.6995 15.0001C25.6995 9.10044 20.8997 4.30078 15.0001 4.30078ZM20.6276 16.1107H15.0001C14.3868 16.1107 13.8895 15.6134 13.8895 15.0001V8.1523C13.8895 7.53892 14.3867 7.04171 15.0001 7.04171C15.6135 7.04171 16.1107 7.53902 16.1107 8.1523V13.8894H20.6276C21.241 13.8894 21.7383 14.3867 21.7383 15.0001C21.7382 15.6134 21.2411 16.1107 20.6276 16.1107Z" fill="white"/>
<path d="M15 0C6.72902 0 0 6.72902 0 15.0001C0 23.2711 6.72902 30 15 30C23.271 30 30 23.2711 30 15.0001C30 6.72902 23.271 0 15 0ZM15 27.6923C8.00147 27.6923 2.3077 21.9985 2.3077 15C2.3077 8.00137 8.00137 2.30755 15 2.30755C21.9985 2.30755 27.6923 8.00137 27.6923 15C27.6923 21.9985 21.9985 27.6923 15 27.6923Z" fill="white"/>
</svg>
