<svg width="57" height="57" viewBox="0 0 57 57" fill="none" xmlns="http://www.w3.org/2000/svg">
<g clip-path="url(#clip0_665_1964)">
<path d="M28.5 56.25C43.8259 56.25 56.25 43.8259 56.25 28.5C56.25 13.1741 43.8259 0.75 28.5 0.75C13.1741 0.75 0.75 13.1741 0.75 28.5C0.75 43.8259 13.1741 56.25 28.5 56.25Z" fill="#E6E6E6"/>
<path d="M28.5 0.75C13.1747 0.75 0.75 13.1747 0.75 28.5C0.75 40.2623 8.05864 50.3117 18.3821 54.3543C18.1309 52.1617 17.9253 48.7815 18.4735 46.3833C18.9759 44.2136 21.7167 32.5883 21.7167 32.5883C21.7167 32.5883 20.8944 30.921 20.8944 28.4772C20.8944 24.6173 23.1327 21.7395 25.9191 21.7395C28.2944 21.7395 29.4364 23.521 29.4364 25.6451C29.4364 28.0204 27.929 31.5833 27.1296 34.8951C26.4673 37.6586 28.5228 39.9198 31.2407 39.9198C36.1741 39.9198 39.9654 34.7123 39.9654 27.221C39.9654 20.5747 35.192 15.9383 28.363 15.9383C20.4605 15.9383 15.8241 21.8537 15.8241 27.9747C15.8241 30.35 16.7377 32.908 17.8796 34.3012C18.108 34.5753 18.1309 34.8265 18.0623 35.1006C17.8568 35.9685 17.3772 37.8642 17.2858 38.2525C17.1716 38.7549 16.8747 38.8691 16.3494 38.6179C12.8778 36.9963 10.708 31.9488 10.708 27.8605C10.708 19.113 17.0574 11.0735 29.0481 11.0735C38.6636 11.0735 46.1549 17.9253 46.1549 27.1068C46.1549 36.6765 40.1253 44.3735 31.7661 44.3735C28.9568 44.3735 26.3074 42.9117 25.4167 41.1759C25.4167 41.1759 24.0235 46.4747 23.6809 47.7765C23.0642 50.1975 21.3741 53.2123 20.2321 55.0623C22.8358 55.8617 25.5765 56.2957 28.4543 56.2957C43.7796 56.2957 56.2043 43.871 56.2043 28.5457C56.25 13.1747 43.8253 0.75 28.5 0.75Z" fill="#E60019"/>
</g>
<defs>
<clipPath id="clip0_665_1964">
<rect width="55.5" height="55.5" fill="white" transform="translate(0.75 0.75)"/>
</clipPath>
</defs>
</svg>
