<svg width="40" height="40" viewBox="0 0 40 40" fill="none" xmlns="http://www.w3.org/2000/svg">
<path d="M0 20C0 8.95431 8.95431 0 20 0C31.0457 0 40 8.95431 40 20C40 31.0457 31.0457 40 20 40C8.95431 40 0 31.0457 0 20Z" fill="#E6E6E6"/>
<path d="M8.54102 26.7188V14.8753C8.54102 14.5658 8.54102 14.411 8.6061 14.3204C8.6629 14.2414 8.75032 14.1898 8.84699 14.1785C8.95777 14.1654 9.09317 14.2404 9.36396 14.3904L30.7437 26.2339C31.297 26.5404 31.5737 26.6937 31.6128 26.8329C31.6466 26.9529 31.6133 27.0817 31.5256 27.1703C31.4239 27.2731 31.1076 27.2731 30.4751 27.2731H9.09535C8.90131 27.2731 8.80429 27.2731 8.73018 27.2354C8.66499 27.2021 8.61199 27.1491 8.57878 27.084C8.54102 27.0098 8.54102 26.9128 8.54102 26.7188Z" stroke="#020F1E" stroke-width="0.692912" stroke-linecap="round"/>
</svg>
