<svg width="56" height="57" viewBox="0 0 56 57" fill="none" xmlns="http://www.w3.org/2000/svg">
<g clip-path="url(#clip0_665_1966)">
<path d="M28 56.25C43.3259 56.25 55.75 43.8259 55.75 28.5C55.75 13.1741 43.3259 0.75 28 0.75C12.6741 0.75 0.25 13.1741 0.25 28.5C0.25 43.8259 12.6741 56.25 28 56.25Z" fill="#FF4500"/>
<path d="M46.5 28.4996C46.5 26.2601 44.6825 24.4425 42.443 24.4425C41.3395 24.4425 40.3658 24.8645 39.6518 25.5785C36.893 23.5987 33.0632 22.3004 28.8439 22.1382L30.6939 13.4724L36.6983 14.7381C36.7632 16.2636 38.029 17.4969 39.5869 17.4969C41.1772 17.4969 42.4755 16.1987 42.4755 14.6083C42.4755 13.018 41.1772 11.7197 39.5869 11.7197C38.4509 11.7197 37.4772 12.3688 37.0228 13.3425L30.3044 11.9145C30.1097 11.882 29.9149 11.9145 29.7527 12.0118C29.5904 12.1092 29.493 12.2715 29.4281 12.4662L27.3834 22.1382C23.0667 22.268 19.2044 23.5338 16.4132 25.5785C15.6992 24.8969 14.693 24.4425 13.622 24.4425C11.3825 24.4425 9.56494 26.2601 9.56494 28.4996C9.56494 30.1548 10.5386 31.5504 11.9667 32.1996C11.9018 32.589 11.8693 33.011 11.8693 33.4329C11.8693 39.6645 19.107 44.6952 28.0649 44.6952C37.0228 44.6952 44.2606 39.6645 44.2606 33.4329C44.2606 33.011 44.2281 32.6215 44.1632 32.232C45.4939 31.5829 46.5 30.1548 46.5 28.4996ZM18.75 31.3882C18.75 29.7978 20.0483 28.4996 21.6386 28.4996C23.229 28.4996 24.5272 29.7978 24.5272 31.3882C24.5272 32.9785 23.229 34.2767 21.6386 34.2767C20.0483 34.2767 18.75 32.9785 18.75 31.3882ZM34.8807 39.0153C32.9009 40.9952 29.136 41.125 28.0325 41.125C26.929 41.125 23.1316 40.9627 21.1842 39.0153C20.8921 38.7232 20.8921 38.2364 21.1842 37.9443C21.4763 37.6522 21.9632 37.6522 22.2553 37.9443C23.4886 39.1776 26.15 39.632 28.0649 39.632C29.9799 39.632 32.6088 39.1776 33.8746 37.9443C34.1667 37.6522 34.6535 37.6522 34.9456 37.9443C35.1728 38.2689 35.1728 38.7232 34.8807 39.0153ZM34.3614 34.2767C32.7711 34.2767 31.4728 32.9785 31.4728 31.3882C31.4728 29.7978 32.7711 28.4996 34.3614 28.4996C35.9518 28.4996 37.25 29.7978 37.25 31.3882C37.25 32.9785 35.9518 34.2767 34.3614 34.2767Z" fill="#E6E6E6"/>
</g>
<defs>
<clipPath id="clip0_665_1966">
<rect width="55.5" height="55.5" fill="white" transform="translate(0.25 0.75)"/>
</clipPath>
</defs>
</svg>
