<svg width="24" height="24" viewBox="0 0 24 24" fill="none" xmlns="http://www.w3.org/2000/svg">
<path d="M8.31714 19.5129C8.51304 19.6815 8.77495 19.7729 9.04528 19.7669C9.31562 19.7609 9.57226 19.658 9.75879 19.4809L16.5604 13.0207C16.7412 12.849 16.8421 12.621 16.8421 12.3839C16.8421 12.1467 16.7412 11.9187 16.5604 11.7471L9.76015 5.28686C9.57366 5.10949 9.31694 5.0064 9.04645 5.00029C8.77596 4.99417 8.51386 5.08553 8.31782 5.25425C8.12178 5.42298 8.00784 5.65525 8.00108 5.89998C7.99433 6.14471 8.09529 6.38184 8.28178 6.55922L14.4142 12.3845L8.28042 18.2098C8.09419 18.3872 7.99345 18.6242 8.00033 18.8688C8.00722 19.1134 8.12117 19.3455 8.31714 19.5141V19.5129Z" fill="#17A2FF"/>
</svg>
