<svg width="50" height="50" viewBox="0 0 50 50" fill="none" xmlns="http://www.w3.org/2000/svg">
<path d="M0 25C0 11.1929 11.1929 0 25 0V0C38.8071 0 50 11.1929 50 25V25C50 38.8071 38.8071 50 25 50V50C11.1929 50 0 38.8071 0 25V25Z" fill="white"/>
<path fill-rule="evenodd" clip-rule="evenodd" d="M24.0599 13.1781C24.0599 12.8482 24.3431 12.6018 24.6639 12.6018H35.1146C35.4354 12.6018 35.7186 12.8482 35.7185 13.1781V13.1781V19.6068C35.7185 19.9368 35.4353 20.1831 35.1145 20.1831H32.9043L32.947 22.303C32.947 24.3204 31.7548 26.388 30.7978 28.0474C30.2401 29.0149 29.7139 29.9282 29.7139 30.3857C29.7139 31.1139 30.7682 32.4887 31.4517 33.3801L31.4518 33.3802L31.4518 33.3802C31.734 33.7483 31.9531 34.034 32.0086 34.1576C32.1004 34.3199 32.1416 34.423 32.14 34.5039L33.6579 36.8893C34.1359 37.6404 33.5964 38.6232 32.7061 38.6232H22.1548C21.3073 38.6232 20.7624 37.7238 21.1548 36.9726L22.4509 34.4915L22.4509 34.4901C22.3078 34.2015 20.8731 33.4264 19.5452 33.209C18.5502 33.0473 17.1858 32.8242 17.1858 31.5981C17.1858 31.0682 17.369 30.7935 17.4902 30.6116L17.4921 30.6088C17.536 30.5438 17.5609 30.5049 17.5823 30.4716C17.601 30.4423 17.617 30.4172 17.6409 30.3825C17.425 30.4108 17.2165 30.254 17.189 30.0317C17.1786 29.9468 17.202 29.8684 17.2383 29.7981L16.8997 29.4594C16.7913 29.3511 16.7534 29.1911 16.8019 29.0456L17.0718 28.2357C16.6078 28.0757 15.9733 27.7459 15.9733 27.1526C15.9733 26.5796 17.1542 24.4659 17.7434 23.4467C17.6884 23.1557 17.5898 22.4905 17.5898 21.4947C17.5898 19.904 19.5308 16.0947 24.0599 15.5089V13.1781ZM29.8391 22.474L32.1449 20.322V20.5717L32.1388 22.3029C32.1388 24.1046 31.0072 26.0679 30.0979 27.644C29.4311 28.799 28.9057 29.7116 28.9057 30.3857C28.9057 31.6981 30.5796 33.7295 31.2184 34.4566L33.0234 37.2931C33.1827 37.5434 33.0028 37.8711 32.7061 37.8711H22.1548C21.8723 37.8711 21.6907 37.5712 21.8215 37.3208L23.1271 34.8216C23.1587 34.7611 23.1722 34.6959 23.1696 34.6323C23.2047 34.5778 23.2327 34.5104 23.2478 34.427C23.3263 33.9943 20.7438 32.5866 19.6761 32.412C18.1145 32.1558 17.994 31.9133 17.994 31.5981C17.994 31.3128 18.0652 31.2061 18.1638 31.059L18.1652 31.0568C18.2637 30.9091 18.3982 30.7074 18.3982 30.3857C18.3982 30.0575 18.2592 29.8651 18.1436 29.7625C18.0902 29.7156 18.0337 29.6841 17.9779 29.6574C18.0038 29.5289 17.9747 29.3915 17.8753 29.2921L17.6481 29.0649L17.9731 28.0894C18.0094 27.9802 17.9965 27.8606 17.9399 27.7604C17.8825 27.661 17.7856 27.5898 17.6724 27.5664C17.2359 27.4742 16.8172 27.2584 16.78 27.1469C16.8099 26.8292 17.7063 25.1165 18.5194 23.7198C18.5712 23.6293 18.5873 23.521 18.5623 23.4192L18.5607 23.4116V23.4116C18.5438 23.3339 18.3982 22.6627 18.3982 21.4947C18.3982 20.4744 19.8441 16.9051 24.0599 16.3218V19.6068C24.0599 19.9368 24.3431 20.1831 24.6639 20.1831H29.5227V22.3365V22.7692L29.8391 22.474ZM24.7929 13.311V19.4739H30.0677H30.2557V19.662V21.0997L31.9434 19.5245L31.9976 19.4739H32.0717H34.9856V13.311H24.7929ZM26.0905 17.0416H28.011V16.5853H26.7825L27.9909 15.0057V14.6196H26.0905V15.081H27.2889L26.0905 16.6455V17.0416ZM28.8764 17.0416H30.797V16.5853H29.5684L30.7769 15.0057V14.6196H28.8764V15.081H30.0749L28.8764 16.6455V17.0416ZM31.6624 17.0416H33.5829V16.5853H32.3544L33.5629 15.0057V14.6196H31.6624V15.081H32.8609L31.6624 16.6455V17.0416ZM23.556 23.055C23.6814 22.8894 23.6488 22.6536 23.4833 22.5282C23.3177 22.4028 23.0818 22.4354 22.9564 22.601C22.7351 22.8932 22.5089 23.051 22.2983 23.1308C22.0867 23.211 21.8671 23.2213 21.6466 23.1816C21.1929 23.0998 20.764 22.8102 20.5122 22.5608C20.3646 22.4146 20.1265 22.4158 19.9803 22.5633C19.8342 22.7109 19.8353 22.949 19.9829 23.0952C20.3041 23.4134 20.8639 23.8049 21.5133 23.9218C21.8444 23.9814 22.205 23.9705 22.5647 23.8342C22.9254 23.6976 23.2616 23.4439 23.556 23.055Z" fill="#020F1E"/>
</svg>
