<svg width="457" height="457" viewBox="0 0 457 457" fill="none" xmlns="http://www.w3.org/2000/svg">
<circle cx="228.5" cy="228.5" r="86.5" fill="white" fill-opacity="0.03"/>
<circle cx="228.5" cy="228.5" r="144.5" fill="white" fill-opacity="0.03"/>
<circle cx="228.5" cy="228.5" r="228.5" fill="white" fill-opacity="0.03"/>
<path d="M247 196L250.105 199H204.719V203H250.105L247 207L249 209L255.5 201L249 194L247 196Z" fill="#17A2FF"/>
<g clip-path="url(#clip0_541_1041)">
<path d="M244.515 259C245.378 256.212 248.196 246.5 248.196 242.921V230.493C248.196 228.818 246.85 227.456 245.197 227.456C243.544 227.456 242.199 228.818 242.199 230.493V235.792C242.199 236.104 241.945 236.357 241.634 236.357C241.323 236.357 241.07 236.104 241.07 235.792V227.511C241.07 225.837 239.724 224.474 238.071 224.474C236.417 224.474 235.072 225.837 235.072 227.511V233.415C235.072 233.726 234.819 233.979 234.508 233.979C234.196 233.979 233.944 233.726 233.944 233.415V225.134C233.944 223.46 232.598 222.098 230.945 222.098C229.292 222.098 227.946 223.46 227.946 225.134V231.04C227.946 231.351 227.693 231.604 227.382 231.604C227.07 231.604 226.818 231.351 226.818 231.04V214.036C226.818 212.362 225.472 211 223.818 211C222.165 211 220.819 212.362 220.819 214.036V240.366C220.819 240.6 220.673 240.812 220.453 240.894C220.236 240.976 219.982 240.911 219.83 240.737L212.806 232.702L212.724 232.617C212.161 232.084 211.422 231.789 210.645 231.784H210.625C209.816 231.794 209.069 232.101 208.52 232.651C207.828 233.344 207.286 234.666 208.636 237.04C210.686 240.641 212.926 244.055 214.911 247.08C216.387 249.33 217.781 251.454 218.821 253.246C219.485 254.393 220.871 257.404 221.637 259H244.515V259Z" fill="#17A2FF"/>
</g>
<defs>
<clipPath id="clip0_541_1041">
<rect width="48" height="48" fill="white" transform="translate(204 211)"/>
</clipPath>
</defs>
</svg>
