<svg width="62" height="38" viewBox="0 0 62 38" fill="none" xmlns="http://www.w3.org/2000/svg">
<path d="M58.94 18.2483C56.8889 13.3247 53.5217 9.0471 49.2 5.87479C45.975 3.55352 35.035 -2.73223 33.425 4.38997C32.605 8.00798 34.115 11.6705 35.965 14.6996C37 16.422 38 18.372 37.5 20.4755C36.545 24.2371 32.29 26.1426 28.715 24.93C25.86 23.9748 23.855 20.8962 24.525 17.9513C24.93 16.1597 26.12 14.7491 26.985 13.1702C28.425 10.5322 29.785 5.91933 28.13 3.07343C24.845 -2.59364 14.24 4.59289 11.13 7.18143C7.28365 10.4387 4.35522 14.6266 2.62999 19.3372C0.814989 24.1529 -0.310011 29.6567 2.30999 34.3883C2.41995 34.5639 2.59378 34.6911 2.79565 34.7436C2.99752 34.7961 3.21204 34.7699 3.39499 34.6704C8.08499 32.5372 13.15 30.899 18.355 31.9136C21.2958 32.5422 24.0706 33.7748 26.5 35.5316C27.845 36.472 29.255 37.5955 31 37.6104C32.745 37.6252 34.15 36.472 35.5 35.5316C37.8314 33.8471 40.4803 32.6421 43.29 31.9879C48.61 30.8247 53.79 32.4828 58.615 34.6655C58.7977 34.7662 59.0126 34.793 59.2148 34.7404C59.417 34.6879 59.5909 34.5599 59.7 34.3834C62.5 29.3102 61.025 23.3165 58.94 18.2483Z" fill="url(#paint0_linear_1095_3653)"/>
<defs>
<linearGradient id="paint0_linear_1095_3653" x1="31.005" y1="36.5116" x2="31.005" y2="-2.22739" gradientUnits="userSpaceOnUse">
<stop stop-color="#01BBE0"/>
<stop offset="1" stop-color="#6ECDE0"/>
</linearGradient>
</defs>
</svg>
