<svg width="59" height="57" viewBox="0 0 59 57" fill="none" xmlns="http://www.w3.org/2000/svg">
<path d="M22.5592 52.55C16.5745 52.55 10.9957 50.8093 6.30005 47.8059C10.2868 48.0639 17.3225 47.4461 21.6987 43.2719C15.1154 42.9698 12.1465 37.9207 11.7593 35.763C12.3186 35.9788 14.9864 36.2377 16.4923 35.6336C8.91946 33.7348 7.75772 27.089 8.01588 25.0608C9.43579 26.0533 11.8453 26.3986 12.7919 26.3123C5.73542 21.2632 8.27405 13.6681 9.52185 12.0282C14.5859 19.044 22.1753 22.9844 31.5644 23.2035C31.3873 22.4271 31.2938 21.6188 31.2938 20.7885C31.2938 14.8302 36.1099 10 42.0507 10C45.1548 10 47.9517 11.3186 49.9151 13.4278C51.9893 12.9417 55.111 11.8039 56.6371 10.8199C55.8679 13.5818 53.4731 15.8858 52.0245 16.7397C52.0365 16.7687 52.0127 16.7105 52.0245 16.7397C53.2969 16.5472 56.7399 15.8855 58.1 14.9627C57.4274 16.5143 54.8884 19.0941 52.8048 20.5384C53.1925 37.6354 40.1115 52.55 22.5592 52.55Z" fill="#1DA1F2"/>
</svg>
