<svg width="57" height="57" viewBox="0 0 57 57" fill="none" xmlns="http://www.w3.org/2000/svg">
<path d="M28.5 56.25C43.8259 56.25 56.25 43.8259 56.25 28.5C56.25 13.1741 43.8259 0.75 28.5 0.75C13.1741 0.75 0.75 13.1741 0.75 28.5C0.75 43.8259 13.1741 56.25 28.5 56.25Z" fill="#25D366"/>
<path fill-rule="evenodd" clip-rule="evenodd" d="M29.4147 43.9387H29.4079C26.6462 43.9377 23.9326 43.2448 21.5225 41.9302L12.775 44.2248L15.116 35.6742C13.672 33.1717 12.9121 30.333 12.9134 27.4248C12.917 18.3268 20.3193 10.9248 29.4145 10.9248C33.8288 10.9267 37.9718 12.6451 41.0872 15.7642C44.2026 18.8831 45.9174 23.0288 45.9156 27.4378C45.912 36.5337 38.5126 43.9349 29.4147 43.9387ZM21.9277 38.9435L22.4285 39.2407C24.5342 40.4903 26.948 41.1515 29.4091 41.1525H29.4146C36.9739 41.1525 43.1264 34.9998 43.1294 27.4374C43.1309 23.7727 41.7057 20.327 39.1162 17.7345C36.5268 15.1421 33.0833 13.7137 29.42 13.7125C21.8549 13.7125 15.7023 19.8645 15.6993 27.4263C15.6982 30.0178 16.4233 32.5416 17.7962 34.7252L18.1223 35.2441L16.7368 40.3052L21.9277 38.9435ZM37.1631 30.9904C37.4506 31.1293 37.6448 31.2232 37.7277 31.3616C37.8308 31.5335 37.8308 32.359 37.4874 33.3223C37.1436 34.2853 35.4965 35.1643 34.7043 35.2827C33.994 35.3889 33.0951 35.4332 32.1074 35.1193C31.5085 34.9293 30.7406 34.6756 29.7569 34.2508C25.8916 32.5818 23.2795 28.8355 22.7858 28.1275C22.7512 28.0779 22.7271 28.0432 22.7136 28.0251L22.7102 28.0207C22.492 27.7296 21.03 25.7789 21.03 23.76C21.03 21.8608 21.9629 20.8654 22.3923 20.4072C22.4218 20.3758 22.4488 20.3469 22.4731 20.3204C22.851 19.9076 23.2977 19.8044 23.5725 19.8044C23.8474 19.8044 24.1225 19.807 24.3627 19.819C24.3924 19.8205 24.4232 19.8204 24.4551 19.8202C24.6954 19.8188 24.9949 19.817 25.2904 20.5268C25.4041 20.8 25.5705 21.205 25.7459 21.6322C26.1007 22.4959 26.4927 23.4501 26.5616 23.5882C26.6647 23.7946 26.7334 24.0353 26.596 24.3106C26.5754 24.3519 26.5563 24.3908 26.538 24.428C26.4348 24.6388 26.3589 24.7938 26.1837 24.9983C26.1148 25.0788 26.0436 25.1655 25.9724 25.2522C25.8306 25.4249 25.6887 25.5977 25.5652 25.7207C25.3588 25.9263 25.144 26.1494 25.3845 26.5621C25.625 26.9749 26.4524 28.325 27.6781 29.4184C28.9957 30.5936 30.1409 31.0903 30.7213 31.3421C30.8347 31.3912 30.9265 31.4311 30.9938 31.4648C31.406 31.6712 31.6465 31.6367 31.887 31.3616C32.1276 31.0864 32.9177 30.1576 33.1925 29.7449C33.4673 29.3323 33.7423 29.401 34.1202 29.5386C34.4982 29.6763 36.5253 30.6736 36.9376 30.88C37.0181 30.9203 37.0933 30.9567 37.1631 30.9904Z" fill="#FDFDFD"/>
</svg>
